<?xml version="1.0" encoding="utf-8"?>
<!-- Generator: Adobe Illustrator 26.0.1, SVG Export Plug-In . SVG Version: 6.00 Build 0)  -->
<svg version="1.1" id="Layer_1" xmlns="http://www.w3.org/2000/svg" xmlns:xlink="http://www.w3.org/1999/xlink" x="0px" y="0px"
	 viewBox="0 0 4531.2 157.1" style="enable-background:new 0 0 4531.2 157.1;" xml:space="preserve">
<style type="text/css">
	.st0{fill:#0458A0;}
	.st1{fill:#FAA71B;}
	.st2{fill:#F26122;}
	.st3{fill:#EA1D25;}
	.st4{fill:#F69E1E;}
	.st5{clip-path:url(#SVGID_00000023281722281895840930000010196681834621243321_);}
	.st6{fill:#6A6B6B;}
	.st7{fill:#67696D;}
	.st8{fill:#2A813F;}
	.st9{fill:#E86724;}
	.st10{fill-rule:evenodd;clip-rule:evenodd;fill:#010101;}
	.st11{fill:#603494;}
	.st12{fill:#FFFFFF;}
	.st13{fill:#26B9EC;}
	.st14{fill:#23356B;}
	.st15{fill:#00D1C1;}
</style>
<g id="g4158">
	<polygon id="polygon9" class="st0" points="208.6,153.6 169.6,153.6 194,2.7 233,2.7 	"/>
	<path id="path11" class="st0" d="M350,6.4c-11.2-4.3-23-6.5-35-6.4c-38.5,0-65.6,20.5-65.8,49.9c-0.3,21.7,19.4,33.7,34.2,40.9
		c15.1,7.4,20.2,12.2,20.2,18.8c-0.1,10.1-12.2,14.8-23.4,14.8c-15.6,0-23.9-2.4-36.6-8l-5.1-2.5l-5.5,33.9c9.1,4.2,26,7.9,43.5,8
		c40.9,0,67.6-20.2,67.9-51.5c0.2-17.2-10.3-30.3-32.7-41.1c-13.6-6.9-22-11.6-22-18.6c0.2-6.4,7.1-13,22.5-13
		c10-0.3,19.9,1.7,29,5.8l3.5,1.6L350,6.4L350,6.4z"/>
	<path id="path13" class="st0" d="M401.9,100.1c3.2-8.7,15.6-42.2,15.6-42.2c-0.2,0.3,3.2-8.8,5.1-14.4l2.7,13c0,0,7.4,36.1,9,43.7
		L401.9,100.1z M450,2.7h-30.2c-9.3,0-16.4,2.7-20.4,12.5l-57.9,138.3h40.9l8.2-22.7h50.1c1.1,5.3,4.7,22.6,4.7,22.6h36.1L450,2.7z"
		/>
	<path id="path15" class="st0" d="M137.1,2.7L98.9,105.6l-4.1-20.9c-7.1-24.1-29.3-50.2-54-63.2l35,131.9H117L178.3,2.7H137.1z"/>
	<path id="path17" class="st1" d="M63.4,2.7H0.6L0,5.7c49,12.6,81.4,42.7,94.7,79L81,15.4C78.8,5.8,71.9,3,63.4,2.7z"/>
</g>
<g id="layer1">
	<g id="g13">
		<rect id="rect19" x="713.5" y="17.9" class="st2" width="66.8" height="120.1"/>
		<path class="st3" d="M717.7,77.9c0-23.4,10.7-45.5,29-60C713.6-8.2,665.5-2.5,639.4,30.6S619,111.8,652.1,138
			c27.7,21.9,66.9,21.9,94.6,0C728.4,123.5,717.7,101.3,717.7,77.9z"/>
		<path id="path22" class="st4" d="M870.5,77.9c0.1,42.1-34,76.4-76.2,76.4c-17.1,0-33.8-5.7-47.3-16.3
			c33.2-26.2,38.8-74.4,12.6-107.5c-3.7-4.7-7.9-8.9-12.6-12.6c33.1-26.1,81.1-20.3,107.1,12.8C864.7,44.2,870.5,60.8,870.5,77.9z"
			/>
	</g>
</g>
<g id="layer1-2">
	<g id="g22">
		<g>
			<g>
				<g>
					<g>
						<defs>
							<rect id="SVGID_1_" x="975.9" y="-45.6" width="499.4" height="249.7"/>
						</defs>
						<clipPath id="SVGID_00000183211893289203092190000004079180766276515985_">
							<use xlink:href="#SVGID_1_"  style="overflow:visible;"/>
						</clipPath>
						<g style="clip-path:url(#SVGID_00000183211893289203092190000004079180766276515985_);">
							<g id="g24">
								<g id="g30">
									<path id="path32" class="st6" d="M1015.2,133.5h3.2l-3,12.4c-0.4,1.8-0.4,3.2,0.3,4.2s1.7,1.4,3.4,1.4c1.5,0,2.9-0.4,4-1.4
										c1.2-1.1,1.9-2.6,2.3-4.1l3-12.4h3.3l-3,12.7c-0.5,2.4-1.7,4.6-3.5,6.2c-1.9,1.4-4.3,2.2-6.7,2.1c-2.7,0-4.6-0.7-5.7-2
										s-1.2-3.4-0.5-6.2L1015.2,133.5z"/>
								</g>
								<g id="g34">
									<path id="path36" class="st6" d="M1031.2,154l5.1-21.3l9.7,12.5c0.3,0.4,0.5,0.7,0.8,1.1s0.5,0.9,0.8,1.4l3.4-14.2h3
										l-5.1,21.3l-9.9-12.7c-0.3-0.4-0.5-0.7-0.7-1.1s-0.4-0.8-0.6-1.2l-3.4,14.2H1031.2z"/>
								</g>
								<g id="g38">
									<path id="path40" class="st6" d="M1053.6,154l4.9-20.5h3.2l-4.9,20.5H1053.6z"/>
								</g>
								<g id="g42">
									<path id="path44" class="st6" d="M1061.5,154l4.9-20.5h11.1l-0.7,2.8h-7.9l-1.2,5.1h7.9l-0.7,2.9h-7.9l-2.4,9.6L1061.5,154
										L1061.5,154z"/>
								</g>
								<g id="g46">
									<path id="path48" class="st6" d="M1076.2,154l4.9-20.5h3.2l-4.9,20.5H1076.2z"/>
								</g>
								<g id="g50">
									<path id="path52" class="st6" d="M1084.1,154l4.9-20.5h11.1l-0.7,2.8h-7.9l-1.2,5.1h7.9l-0.7,2.9h-7.9l-1.6,6.6h7.9l-0.7,3
										L1084.1,154L1084.1,154z"/>
								</g>
								<g id="g54">
									<path id="path56" class="st6" d="M1103,151h2.7c1.2,0,2.3-0.1,3.4-0.3c0.8-0.2,1.5-0.5,2.2-1c0.9-0.7,1.7-1.5,2.3-2.5
										c0.6-1.1,1.1-2.2,1.3-3.4c0.3-1.1,0.4-2.3,0.3-3.4c-0.1-0.9-0.5-1.8-1.1-2.5c-0.5-0.5-1.1-0.8-1.8-1
										c-1.2-0.3-2.4-0.4-3.6-0.3h-2.3L1103,151z M1099,154l4.9-20.5h4.4c2-0.1,4,0.1,5.9,0.4c1,0.3,1.9,0.8,2.7,1.5
										c1,0.9,1.6,2.2,1.8,3.5c0.2,1.6,0.1,3.3-0.3,4.9c-0.4,1.7-1.1,3.3-2,4.8c-0.9,1.4-2.1,2.6-3.5,3.5c-1,0.7-2.1,1.2-3.3,1.5
										c-1.7,0.3-3.5,0.5-5.3,0.4L1099,154L1099,154z"/>
								</g>
								<g id="g58">
									<path id="path60" class="st6" d="M1134.2,142.1h0.8c1.3,0.1,2.6-0.1,3.7-0.6c0.8-0.5,1.3-1.3,1.4-2.1
										c0.3-1.1,0.1-1.9-0.4-2.3c-1-0.6-2.2-0.8-3.4-0.7h-0.8L1134.2,142.1z M1133.3,144.8l-2.2,9.2h-3l4.9-20.5h4.9
										c1.1,0,2.1,0,3.2,0.3c0.6,0.1,1.1,0.4,1.6,0.8c0.5,0.5,0.9,1.2,1,1.9c0.2,0.9,0.1,1.8-0.1,2.7c-0.2,1-0.6,1.9-1.2,2.7
										c-0.5,0.8-1.2,1.4-1.9,1.9c-0.6,0.4-1.3,0.6-2,0.8c-1.1,0.2-2.2,0.3-3.3,0.2L1133.3,144.8L1133.3,144.8z"/>
								</g>
								<g id="g62">
									<path id="path64" class="st6" d="M1147.5,146h5.6l-0.9-4.7c0-0.3-0.1-0.6-0.1-1s-0.1-0.8-0.1-1.3c-0.2,0.4-0.4,0.9-0.7,1.3
										s-0.4,0.7-0.6,1.1L1147.5,146z M1154.5,154l-1-5.3h-7.9l-3.6,5.3h-3.3l14.8-21.3l4.5,21.3H1154.5z"/>
								</g>
								<g id="g66">
									<path id="path68" class="st6" d="M1162.6,154l2.2-9.4l-4.1-11.1h3.4l2.5,7c0,0.2,0.1,0.5,0.2,0.7c0.1,0.3,0.2,0.6,0.2,0.9
										c0.2-0.3,0.4-0.6,0.6-0.9s0.4-0.6,0.6-0.8l5.9-6.9h3.2l-9.5,11.1l-2.3,9.4H1162.6z"/>
								</g>
								<g id="g70">
									<path id="path72" class="st6" d="M1193.6,143.9c0-0.2,0.1-0.6,0.1-1.3s0.1-1.1,0.2-1.5c-0.2,0.5-0.4,0.9-0.7,1.4
										c-0.3,0.5-0.6,1-0.9,1.4l-7.8,10.9l-2.6-11.1c-0.1-0.4-0.2-0.9-0.3-1.3c-0.1-0.4-0.1-0.9-0.1-1.3c-0.1,0.5-0.3,0.9-0.4,1.4
										c-0.2,0.5-0.4,1-0.6,1.5l-4.5,10h-3l9.8-21.3l2.8,12.9c0,0.2,0.1,0.5,0.2,1s0.2,1.1,0.3,1.8c0.3-0.6,0.8-1.3,1.4-2.2
										c0.2-0.2,0.3-0.4,0.4-0.6l8.8-12.9l-0.3,21.3h-3L1193.6,143.9z"/>
								</g>
								<g id="g74">
									<path id="path76" class="st6" d="M1199,154l4.9-20.5h11.1l-0.7,2.8h-7.9l-1.2,5.1h7.9l-0.7,2.9h-7.9l-1.6,6.6h7.9l-0.7,3
										L1199,154z"/>
								</g>
								<g id="g78">
									<path id="path80" class="st6" d="M1213.8,154l5.1-21.3l9.7,12.5c0.3,0.4,0.5,0.7,0.8,1.1s0.5,0.9,0.8,1.4l3.4-14.2h3
										l-5.1,21.3l-9.9-12.7c-0.5-0.7-1-1.5-1.4-2.3l-3.4,14.2H1213.8z"/>
								</g>
								<g id="g82">
									<path id="path84" class="st6" d="M1246.9,136.4l-4.2,17.6h-3.2l4.2-17.6h-5.3l0.7-2.8h13.8l-0.7,2.8H1246.9z"/>
								</g>
								<g id="g86">
									<path id="path88" class="st6" d="M1250.3,149.9l2.9-1.2c0,0.8,0.3,1.5,0.8,2.1c0.7,0.5,1.5,0.8,2.3,0.7
										c1.8,0.1,3.5-1.2,3.9-3c0.3-1.2-0.4-2.3-2.2-3.2l-0.6-0.3c-1.4-0.7-2.7-1.7-3.7-3c-0.5-1-0.6-2.2-0.3-3.3
										c0.4-1.6,1.3-3.1,2.6-4.1c1.4-1,3-1.6,4.7-1.6c1.2-0.1,2.4,0.2,3.5,0.9c0.8,0.6,1.4,1.5,1.5,2.5l-2.9,1.4
										c-0.2-0.6-0.5-1.1-1-1.4c-0.5-0.3-1-0.5-1.5-0.4c-0.8,0-1.6,0.2-2.3,0.7c-0.6,0.5-1,1.1-1.2,1.9c-0.3,1.2,0.6,2.4,2.6,3.4
										l0.4,0.2c1.4,0.6,2.5,1.5,3.4,2.7c0.5,1,0.7,2.2,0.3,3.3c-0.4,1.8-1.4,3.5-2.9,4.6c-1.5,1.2-3.3,1.8-5.2,1.7
										c-1.4,0.1-2.8-0.3-3.9-1.2C1250.6,152.5,1250.1,151.2,1250.3,149.9"/>
								</g>
								<g id="g90">
									<path id="path92" class="st6" d="M1274.2,154l4.9-20.5h3.2l-4.9,20.5H1274.2z"/>
								</g>
								<g id="g94">
									<path id="path96" class="st6" d="M1282.1,154l5.1-21.3l9.7,12.5c0.3,0.4,0.5,0.7,0.8,1.1s0.5,0.9,0.8,1.4l3.4-14.2h3
										l-5.1,21.3l-9.9-12.7c-0.3-0.4-0.5-0.7-0.7-1.1s-0.4-0.8-0.6-1.2l-3.4,14.2H1282.1z"/>
								</g>
								<g id="g98">
									<path id="path100" class="st6" d="M1315.2,136.4L1311,154h-3.3l4.2-17.6h-5.2l0.7-2.8h13.8l-0.7,2.8H1315.2z"/>
								</g>
								<g id="g102">
									<path id="path104" class="st6" d="M1318.7,154l4.9-20.5h11.1l-0.7,2.8h-7.9l-1.2,5.1h7.9l-0.7,2.9h-7.9l-1.6,6.6h7.9
										l-0.7,3L1318.7,154z"/>
								</g>
								<g id="g106">
									<path id="path108" class="st6" d="M1339.7,142.3h0.6c1.2,0.1,2.4-0.1,3.6-0.6c0.7-0.5,1.2-1.3,1.4-2.2
										c0.3-1.1,0.2-1.9-0.3-2.4s-1.6-0.7-3.2-0.7h-0.6L1339.7,142.3z M1338.8,144.8l-2.2,9.2h-3l4.9-20.5h4.5c1,0,2,0.1,3,0.3
										c0.6,0.1,1.2,0.4,1.7,0.9s0.9,1.2,1,1.9c0.1,0.9,0.1,1.7-0.1,2.6c-0.3,1.5-1,2.8-2.1,3.9c-1.1,1-2.4,1.5-3.8,1.7l4.6,9.3
										h-3.7l-4.4-9.2L1338.8,144.8z"/>
								</g>
								<g id="g110">
									<path id="path112" class="st6" d="M1349.2,154l4.9-20.5h11.1l-0.7,2.8h-7.9l-1.2,5.1h7.9l-0.7,2.9h-7.9l-2.3,9.6
										L1349.2,154L1349.2,154z"/>
								</g>
								<g id="g114">
									<path id="path116" class="st6" d="M1369,146h5.6l-0.9-4.7c0-0.3-0.1-0.6-0.1-1s-0.1-0.8-0.1-1.3c-0.2,0.4-0.4,0.9-0.7,1.3
										s-0.4,0.7-0.6,1.1L1369,146z M1376,154l-1-5.3h-7.9l-3.6,5.3h-3.4l14.8-21.3l4.6,21.3H1376z"/>
								</g>
								<g id="g118">
									<path id="path120" class="st6" d="M1400.6,138.5c-0.7-0.8-1.5-1.4-2.5-1.8c-1-0.4-2-0.6-3.1-0.6c-2.1,0-4.2,0.8-5.8,2.2
										c-1.7,1.4-2.9,3.4-3.4,5.6c-0.6,1.8-0.3,3.8,0.7,5.5c1,1.5,2.7,2.3,4.5,2.2c1.2,0,2.4-0.2,3.5-0.6c1.3-0.5,2.4-1.1,3.5-1.9
										l-0.9,3.8c-2,1.3-4.3,1.9-6.6,1.9c-1.4,0-2.7-0.2-4-0.8c-1.1-0.5-2.1-1.3-2.9-2.3s-1.2-2.2-1.4-3.5
										c-0.2-1.4-0.1-2.9,0.2-4.2c0.4-1.5,1-2.9,1.8-4.2s1.9-2.5,3.1-3.5s2.5-1.7,4-2.3c1.4-0.5,2.9-0.8,4.3-0.8
										c1.1,0,2.2,0.2,3.2,0.5c1,0.4,1.9,0.9,2.7,1.6L1400.6,138.5z"/>
								</g>
								<g id="g122">
									<path id="path124" class="st6" d="M1400.9,154l4.9-20.5h11.2l-0.7,2.8h-7.9l-1.2,5.1h7.8l-0.7,2.9h-7.9l-1.6,6.6h7.9
										l-0.7,3L1400.9,154z"/>
								</g>
								<g id="g126">
									<path id="path128" class="st7" d="M1341.7,115.7h-22.3l31-112h22.3L1341.7,115.7z"/>
								</g>
								<g id="g130">
									<path id="path132" class="st7" d="M1330.2,7.3c-1.5-2.1-3.9-3.2-7.2-3.2h-122.6l-6.1,21.9h111.5l-6.5,23.4h-111.5
										l-18.5,66.8h22.3l12.4-44.8h100.3c3.2,0,6.3-1.2,8.8-3.2c2.7-2,4.6-4.8,5.4-8l12.4-44.8C1332,12.1,1331.7,9.4,1330.2,7.3"
										/>
								</g>
								<g id="g134">
									<path id="path136" class="st7" d="M1156.4,108.7c-1.2,4.4-5.3,7.5-9.9,7.5h-115c-3.1,0-5.5-1.1-7-3.2s-1.9-4.8-1-7.9
										l28.1-101h22.3l-25.1,90.2h89.3l25.1-90.2h22.3L1156.4,108.7z"/>
								</g>
								<g id="g138">
									<path id="path140" class="st8" d="M1411.3,3.9l28.2,56.1l-59.3,56.1L1411.3,3.9z"/>
								</g>
								<g id="g142">
									<path id="path144" class="st9" d="M1391.5,3.9l28.2,56.2l-59.4,56.1L1391.5,3.9z"/>
								</g>
							</g>
						</g>
					</g>
				</g>
			</g>
		</g>
	</g>
</g>
<g>
	<path class="st10" d="M3491,54.5l76.2-54l76.5,54H3491z M3636,82.7c13,1.6,22.9,12.6,22.9,25.8v22c0,14.3-11.6,25.9-25.9,25.9
		s-25.9-11.6-25.9-25.9v-22c0-13.1,9.8-24.2,22.9-25.7V68.3c0-1.7,1.4-3.1,3.1-3.1c1.7,0,3.1,1.4,3.1,3.1l0,0L3636,82.7L3636,82.7z
		 M3647,94.4c-7.7-7.7-20.3-7.7-28,0c-3.7,3.7-5.8,8.7-5.8,14v22c0,10.9,8.9,19.8,19.8,19.8c10.9,0,19.8-8.9,19.8-19.8v-22
		C3652.8,103.2,3650.7,98.1,3647,94.4L3647,94.4z M3632.8,102.8L3632.8,102.8c2.7,0,4.9,2.2,4.9,4.9v5.1c-0.1,2.7-2.2,4.9-4.9,4.9
		l0,0c-2.7,0-5-2.2-5-4.9v-5.1C3627.8,104.9,3630,102.7,3632.8,102.8C3632.7,102.7,3632.8,102.7,3632.8,102.8L3632.8,102.8
		L3632.8,102.8z M3487.4,133.3h8.9v-8.2h4.6v-3.9h5V74.1h-10.2V62.8h125.2c-0.8,1.7-1.2,3.6-1.2,5.5v6.4c-0.8,0.3-1.6,0.7-2.4,1.1
		c-2.7,1.3-5.2,3-7.5,4.9V74H3594v47.1h2.9v9.2l0,0c0,3.9,0.6,7.8,1.9,11.5h-111.4V133.3z M3529.7,125.1h5.8v-3.9h5V74.1h-15.8v47.1
		h5V125.1z M3564.3,125.1h5.8v-3.9h5V74.1h-15.8v47.1h5V125.1z M3541.6,40.9l25.8-19.8l25.9,19.8H3541.6z"/>
	<path d="M3682.3,71.5V23.1h7.7l16.2,32.3V23.1h7.5v48.3h-8l-16-31.5v31.5L3682.3,71.5L3682.3,71.5z"/>
	<path d="M3722.1,71.5V23.1h29.4v8.2h-21.4V42h19.9v8.1h-19.9v13.2h22.2v8.2H3722.1z"/>
	<path d="M3768,71.5V31.3h-11.8v-8.2h31.5v8.2H3776v40.2H3768z"/>
	<path d="M3682.2,90.7h15.8c4.3,0,7.4,0.4,9.1,1.2c1.9,0.9,3.4,2.4,4.5,4.2c2.3,4,2.4,9,0.3,13.1c-0.9,1.7-2.3,3.2-4,4.2
		c2.3,0.8,4.2,2.3,5.5,4.3c1.4,2.2,2.1,4.8,2,7.4c0.1,3.2-0.8,6.3-2.5,8.9c-1.4,2.2-3.5,3.8-6,4.5c-1.6,0.4-5.3,0.6-11.2,0.6h-13.4
		L3682.2,90.7z M3690.2,98.7v11.2h5.3c2,0.1,3.9,0,5.9-0.2c1.2-0.2,2.4-0.8,3.2-1.7c0.8-1.1,1.2-2.4,1.2-3.8
		c0.1-1.2-0.3-2.4-0.9-3.5c-0.5-0.8-1.3-1.4-2.3-1.7c-2.5-0.3-5.1-0.4-7.7-0.3H3690.2z M3690.2,117.9v12.9h7.4
		c2.1,0.1,4.2-0.1,6.3-0.5c1-0.4,1.8-1.1,2.3-2c0.7-1.2,1-2.5,0.9-3.8c0.1-1.4-0.3-2.7-1-3.9c-0.6-1-1.6-1.7-2.7-2.1
		c-2.2-0.5-4.5-0.7-6.8-0.6H3690.2z"/>
	<path d="M3757.9,139h-8.7l-3.5-10.9h-15.9l-3.3,10.9h-8.5l15.4-48.3h8.5L3757.9,139z M3743.2,119.9l-5.4-18l-5.4,18H3743.2z"/>
	<path d="M3762.2,139V90.7h7.8l16.2,32.2V90.7h7.5V139h-8.1l-16-31.5V139H3762.2z"/>
	<path d="M3802.1,139V90.7h8v21.5l16.2-21.5h10.8l-14.9,18.8l15.7,29.5h-10.4l-10.9-22.7l-6.5,8.1V139H3802.1z"/>
	<path d="M3841.7,139V90.7h8V139H3841.7z"/>
	<path d="M3857.5,139V90.7h7.8l16.2,32.2V90.7h7.4V139h-8l-16-31.5V139H3857.5z"/>
	<path d="M3915.8,121.3v-8.2h17.2v19.2c-2.1,2.3-4.6,4.1-7.4,5.3c-3,1.4-6.3,2.2-9.6,2.2c-3.7,0.1-7.3-1-10.3-2.9
		c-3.2-2.1-5.6-5.1-7.1-8.6c-1.8-4.3-2.7-8.9-2.6-13.5c-0.1-4.7,0.8-9.4,2.7-13.7c1.5-3.4,3.8-6.3,6.9-8.5c3-1.9,6.6-2.9,10.1-2.8
		c4.7,0,8.5,1.2,11.3,3.6s4.7,5.9,5.5,10.6l-7.9,1.8c-0.4-2.2-1.6-4.2-3.3-5.7c-1.6-1.3-3.6-2-5.7-2c-3.2-0.1-6.3,1.4-8.3,4
		c-2.1,2.7-3.2,6.7-3.2,12.1c0,5.8,1.1,10.2,3.4,13.3c1.8,2.6,4.8,4,8,3.9c1.7,0,3.3-0.4,4.9-1.1c1.7-0.7,3.2-1.7,4.5-3v-6.1
		L3915.8,121.3z"/>
</g>
<g>
	<path class="st11" d="M1994.6,122.1v-31c0-7.6-2.9-11.4-10-11.4c-2.7,0-5.4,0.3-8.1,1V126c-0.1,1.5-1.3,2.8-2.9,2.9h-11
		c-1.5-0.1-2.8-1.3-2.9-2.9V73c0.1-1.7,1.2-3.3,2.9-3.8c7.1-2.5,14.5-3.7,21.9-3.8c17.2,0,26.8,9,26.8,25.7v35.2
		c-0.1,1.5-1.3,2.8-2.9,2.9h-6.7c-3.9,0.1-7.1-3-7.2-6.9L1994.6,122.1z M2037.5,103.5l-0.5,4.3c0,5.7,3.8,9.1,10,9.1
		c4.8,0,9.1-1.4,13.8-3.8c0.5,0,1-0.5,1.4-0.5c0.7,0,1.4,0.4,1.9,0.9c0.5,0.6,1,1.2,1.4,1.9c1,1.4,1.7,3,1.9,4.8
		c0,2.4-1.3,4.5-3.3,5.7c-5.6,2.9-11.8,4.4-18.1,4.3c-7.6,0-13.8-1.9-18.6-5.7c-4.9-4.3-7.7-10.6-7.6-17.2V88.7
		c0-14.8,9.5-23.8,25.8-23.8c15.7,0,24.8,8.6,24.8,23.8v11.4c-0.1,1.6-1.4,2.8-2.9,2.9h-30L2037.5,103.5z M2037.1,93h18.1v-4.8
		c0-5.7-3.3-9.5-9.1-9.5c-5.8,0-9.1,3.3-9.1,9.5L2037.1,93L2037.1,93z M2158.6,103.5l-0.5,4.3c0,5.7,3.8,9.1,10,9.1
		c4.8,0,9.1-1.4,13.8-3.8c0.5,0,0.9-0.5,1.4-0.5c0.7,0,1.5,0.4,1.9,0.9c0.5,0.6,1,1.2,1.4,1.9c1,1.4,1.7,3,1.9,4.8
		c0,2.4-1.3,4.5-3.3,5.7c-5.6,2.9-11.8,4.4-18.1,4.3c-7.6,0-13.8-1.9-18.6-5.7c-4.9-4.3-7.7-10.6-7.6-17.2V88.7
		c0-14.8,9.5-23.8,25.7-23.8c15.7,0,24.8,8.6,24.8,23.8v11.4c-0.1,1.5-1.3,2.8-2.9,2.9h-30.1L2158.6,103.5L2158.6,103.5z M2158.2,93
		h18.1v-4.8c0-5.7-3.3-9.5-9.1-9.5s-9.1,3.3-9.1,9.5V93H2158.2z M1877.8,129.2h6.7c1.5-0.1,2.8-1.3,2.9-2.9V91.1
		c0-16.2-8.6-25.7-22.9-25.7c-4,0-8.1,0.7-11.9,1.9V49.7c-0.1-3.9-3.2-7.1-7.1-7.2h-6.7c-1.5,0.1-2.8,1.3-2.9,2.9v81.1
		c0.1,1.5,1.3,2.8,2.9,2.9h11c1.5-0.1,2.8-1.3,2.9-2.9V81.6c2.6-0.9,5.3-1.4,8.1-1.4c7.1,0,10,3.3,10,11.4v31
		C1871.2,125.9,1874,129.2,1877.8,129.2L1877.8,129.2z M1949.8,89.2v17.6c0,14.8-10,23.8-26.7,23.8c-16.2,0-26.7-9.1-26.7-23.8V89.2
		c0-14.8,10-23.8,26.7-23.8S1949.8,74.4,1949.8,89.2L1949.8,89.2z M1933.1,89.2c0-5.7-3.3-9.5-9.5-9.5s-9.5,3.3-9.5,9.5v17.6
		c0,5.7,3.3,9.1,9.5,9.1s9.5-3.3,9.5-9.1V89.2z M1826.8,81.1c0,15.3-11.4,25.7-26.7,25.7c-3.6,0.1-7.2-0.5-10.5-1.9v21.5
		c-0.1,1.5-1.3,2.8-2.9,2.9h-11c-1.5-0.1-2.8-1.3-2.9-2.9V50.6c0.1-1.7,1.2-3.3,2.9-3.8c7-2.5,14.4-3.7,21.9-3.8
		c17.2,0,29.1,10.5,29.1,26.7L1826.8,81.1L1826.8,81.1z M1809.7,68.7c0-7.6-5.2-11.4-12.4-11.4c-2.5,0-4.9,0.5-7.1,1.4v31.5
		c2.3,1.3,5,2,7.6,1.9c7.1,0,12.4-4.3,12.4-11.4v-12H1809.7z M2134.8,81.1c0,15.3-11.4,25.7-26.7,25.7c-3.6,0.1-7.2-0.5-10.5-1.9
		v21.5c-0.1,1.5-1.3,2.8-2.9,2.9h-11c-1.5-0.1-2.8-1.3-2.9-2.9V50.6c0.1-1.7,1.2-3.3,2.9-3.8c7-2.5,14.5-3.8,21.9-3.8
		c17.2,0,29.1,10.5,29.1,26.7L2134.8,81.1L2134.8,81.1z M2117.6,68.7c0-7.6-5.2-11.4-12.4-11.4c-2.5,0-4.9,0.5-7.1,1.4v31.5
		c2.3,1.3,5,2,7.6,1.9c7.2,0,12.4-4.3,12.4-11.4v-12H2117.6z"/>
	<circle class="st11" cx="1658.5" cy="78" r="78.4"/>
	<path class="st12" d="M1694.1,57.5c0-3.1-2.6-5.6-5.7-5.7h-10.5l-24.1-27.6c-2.3-2.6-5.9-3.6-9.2-2.6l-8.3,2.6
		c-1,0.3-1.5,1.4-1.2,2.4l0,0c0.1,0.2,0.2,0.4,0.3,0.6l26.3,25h-39.9c-1.1-0.1-2.1,0.7-2.2,1.8l0,0c0,0.1,0,0.2,0,0.3v4.4
		c0.1,3.1,2.6,5.6,5.7,5.7h6.1v21.1c0,15.8,8.3,25,22.4,25c4.2,0.1,8.4-0.6,12.3-2.2v14c-0.1,3.8,3,7,6.8,7l0,0h6.3
		c1.4-0.1,2.5-1.2,2.6-2.6V64.1h10.1c1.1,0.1,2.1-0.7,2.2-1.8l0,0c0-0.1,0-0.2,0-0.3L1694.1,57.5z M1666.1,95.2
		c-2.8,1.2-5.7,1.8-8.8,1.8c-7,0-10.5-3.5-10.5-11.4v-21h19.2L1666.1,95.2z"/>
</g>
<g>
	<path class="st13" d="M2820.3,46.5c-4.6-13.1-17-21.8-30.8-21.8h-0.3c-8.9,0-17.4,3.6-23.5,10c-6.1-6.4-14.7-10-23.5-10h-0.3
		c-7.8,0-15.4,2.8-21.3,7.9v-2.5c-0.2-2.5-2.3-4.5-4.8-4.5H2694c-2.7,0-4.8,2.1-4.8,4.8l0,0V149c0,2.7,2.2,4.8,4.8,4.8l0,0h21.8
		c2.4,0,4.4-1.8,4.8-4.2v-85c0-0.3,0-0.6,0-0.9c0.3-4,3.5-7.1,7.5-7.3h4c1.7,0.1,3.3,0.7,4.6,1.8c1.9,1.5,3,3.9,3,6.4l0.1,84.7
		c0,2.7,2.2,4.8,4.8,4.9l0,0h21.8c2.6,0,4.6-2,4.8-4.6V64.5c-0.1-2.7,1.3-5.3,3.6-6.8c1.2-0.8,2.6-1.2,4-1.3h4
		c4.3,0.2,7.7,3.8,7.6,8.2l0.1,84.6c0,2.7,2.2,4.8,4.8,4.8l0,0h22c2.7,0,4.8-2.2,4.8-4.8v-91C2822,51.9,2821.3,49.3,2820.3,46.5
		L2820.3,46.5z M2672.4,25.9h-12.5V5.6c0-2.4-2-4.4-4.4-4.4l0,0c-0.3,0-0.6,0-0.8,0.1c-13.9,3.8-11.1,23-36.4,24.6h-2.4
		c-0.4,0-0.7,0-1.1,0.1l0,0c-2.2,0.5-3.8,2.4-3.8,4.7v21.9c0,2.7,2.2,4.8,4.8,4.8h13.2V150c0,2.6,2.1,4.8,4.8,4.8h21.6
		c2.6,0,4.8-2.1,4.8-4.8V57.4h12.2c2.7,0,4.8-2.2,4.8-4.8V30.8C2677.2,28.1,2675.1,25.9,2672.4,25.9"/>
	<path class="st14" d="M2593.8,25.9H2572c-2.7,0-4.8,2.2-4.8,4.8l0,0v45.2c-0.1,2.8-2.3,5-5.1,5h-9.1c-2.8,0-5.1-2.3-5.1-5.1l0,0
		l-0.2-45.1c0-2.7-2.2-4.8-4.8-4.8h-21.8c-2.7,0-4.8,2.1-4.8,4.8l0,0v49.5c0,18.8,13.4,32.2,32.2,32.2c0,0,14.1,0,14.6,0.1
		c2.8,0.3,4.8,2.8,4.5,5.6c-0.2,2.4-2.1,4.3-4.5,4.5l-0.4,0.1l-31.9,0.1c-2.7,0-4.8,2.2-4.8,4.8l0,0v21.8c0,2.7,2.1,4.8,4.8,4.8l0,0
		h35.7c18.8,0,32.2-13.4,32.2-32.2V30.8C2598.6,28.1,2596.5,25.9,2593.8,25.9L2593.8,25.9L2593.8,25.9z M2382.4,65.9v13.5
		c0,2.8-2.3,5.1-5.1,5.1h-13.9v-27h13.9c2.8,0,5.1,2.3,5.1,5.1l0,0V65.9z M2384.3,25.9h-47.7c-2.6,0-4.7,2.1-4.7,4.7V52v0.1
		c0,0,0,0.2,0,0.3v96.9c-0.1,2.5,1.9,4.7,4.4,4.8h22.2c2.7,0,4.8-2.2,4.8-4.8l0,0l0.1-33.2h20.9c17.5,0,29.7-12.1,29.7-29.7V55.7
		C2414,38.1,2401.8,25.9,2384.3,25.9L2384.3,25.9z M2473,117.3v3.4c0,0.3,0,0.5-0.1,0.8c-0.1,0.2-0.1,0.5-0.2,0.7
		c-0.8,2-2.7,3.3-4.9,3.3h-9.1c-2.7,0.1-5-2.1-5.1-4.8v-4.1c0,0,0-0.1,0-0.2V102c0.1-2.7,2.4-4.9,5.1-4.8h9.1c2.7-0.1,5,2.1,5.1,4.8
		L2473,117.3z M2469.5,26.1h-30.3c-2.6-0.1-4.8,1.9-4.8,4.5v8.5c0,0,0,0.1,0,0.2s0,0.1,0,0.2v11.6c0.1,2.7,2.4,4.9,5.1,4.8h28.9
		c2.4,0.3,4.2,2.2,4.4,4.6v2.8c-0.2,2.3-1.9,4.2-4.2,4.5h-14.3c-19,0-32.6,12.6-32.6,30.4v25.4c0,17.6,11.6,30.2,30.5,30.2h39.6
		c7.1,0,12.9-5.4,12.9-12v-83C2504.7,38.7,2494.3,26.1,2469.5,26.1L2469.5,26.1z"/>
</g>
<g>
	<g transform="translate(0.000000,511.000000) scale(0.100000,-0.100000)">
		<path d="M29710.5,5076c-15.7-9.2-38.7-31.4-50.7-48.9l-22.1-30.4l-2.8-659.4c-2.8-736.9-4.6-713.9,60.9-763.6l32.3-24.9
			l1815.9-2.8c2006.9-1.8,1853.8-7.4,1903.6,59l26.8,34.1v680.6c0,676,0,680.6-19.4,706.4c-10.2,13.8-33.2,35-49.8,47l-30.4,20.3
			H31557C29788,5093.5,29738.2,5092.6,29710.5,5076z M33394.1,5047.4c60-36.9,58.1-14.8,55.3-740.6c-2.8-634.5-3.7-657.6-21.2-683.4
			c-36.9-55.3,81.2-51.7-1873.2-51.7c-2020.7,0-1843.6-6.5-1877.7,70.1c-16.6,37.8-16.6,69.2-14.7,692.7
			c2.8,623.4,3.7,653.9,20.3,678.8c37.8,55.3-97.8,51.6,1873.1,52.6C33353.5,5065.8,33363.7,5065.8,33394.1,5047.4z"/>
		<path d="M31087.5,4756.9c-73.8-25.8-110.7-82.1-111.6-166.9c0-119.9,94.1-182.6,233.3-155c26.7,5.5,28.6,8.3,28.6,49.8v43.3
			l-35-9.2c-69.2-18.5-121.8,13.8-121.8,75.6c0,52.6,32.3,87.6,79.3,87.6c20.3,0.9,45.2-2.8,57.2-6.5c19.4-7.4,20.3-5.5,20.3,37.8
			s-0.9,46.1-28.6,51.7C31165,4773.5,31126.2,4771.7,31087.5,4756.9z"/>
		<path d="M31689.7,4750.5c-55.3-28.6-75.6-75.6-51.7-123.6c12-25.8,27.7-38.7,75.6-60c44.3-20.3,59-31.4,57.2-43.3
			c-3.7-21.2-51.7-24.9-95-7.4c-19.4,8.3-36,14.8-37.8,14.8s-3.7-18.5-3.7-41.5c0-36.9,2.8-43.3,24-50.7
			c34.1-12.9,119-11.1,154.9,3.7c38.7,15.7,70.1,56.3,70.1,89.5c0,36-38.7,77.5-96.8,104.2c-29.5,12.9-50.7,28.6-50.7,36.9
			c0,20.3,41.5,28.6,83,15.7c47-13.8,46.1-14.8,46.1,30.4c0,38.8-0.9,40.6-34.1,46.1C31768.1,4775.3,31731.2,4770.7,31689.7,4750.5z
			"/>
		<path d="M32515.2,4753.2c-44.3-20.3-63.6-40.6-83-86.7c-47-113.5,30.4-237,148.5-237c72.9,0,121.8,31.4,152.2,96.8
			c42.4,91.3-1.8,203.8-92.3,234.3C32596.3,4775.3,32557.6,4772.6,32515.2,4753.2z M32627.7,4661c19.4-24.9,14.7-108.8-6.5-130
			c-52.6-52.6-119.9,23-92.2,105.1C32545.6,4686.8,32598.2,4699.7,32627.7,4661z"/>
		<path d="M30077.6,4720l-29.5-41.5h81.1c142,0,251.8-33.2,278.5-83c9.2-18.5,6.5-18.5-145.7-18.5h-154.9l-29.5-41.5
			c-16.6-23-29.5-44.3-29.5-46.1c0-2.8,87.6-4.6,193.7-4.6c128.2,0,193.7-3.7,193.7-9.2c0-24.9-38.7-82.1-71-103.3
			c-53.5-35.9-100.5-47.9-193.6-47.9l-85.8-0.9v-46.1v-46.1l190-204.8l189.1-205.7h68.3c37.8,0,70.1,3.7,72.9,7.4
			c2.8,4.6-77.5,101.5-178,214.9c-101.5,113.4-182.6,207.5-180.8,209.3c0.9,0.9,28.6,6.5,60.9,12c119.9,19.4,211.2,81.2,249,169.7
			l22.1,49.8l59,2.8c60,2.8,60,2.8,91.3,47l31.3,43.3h-93.2h-92.2l-21.2,44.3c-11.1,24-22.1,46.1-24,50.7c-1.8,3.7,36,6.5,83.9,6.5
			h87.6l22.1,30.4c12,15.7,25.8,35,29.5,41.5c5.5,8.3-60.9,11.1-319.1,11.1h-326.5L30077.6,4720z"/>
		<path d="M31319,4607.5c-29.5-85.8-53.5-160.5-53.5-166.9c0-7.4,16.6-11.1,50.7-11.1c48.9,0,50.7,0.9,58.1,30.4
			c7.4,28.6,9.2,29.5,57.2,29.5s49.8-0.9,57.2-29.5c7.4-29.5,9.2-30.4,58.1-30.4c35,0,50.7,3.7,50.7,12c0,5.5-22.1,79.3-49.8,163.3
			l-48.9,152.2l-63.6,2.8l-63.6,2.8L31319,4607.5z M31443.5,4642.5c2.8-14.8,8.3-36.9,12-50.7c5.5-22.1,3.7-24-24-24
			s-29.5,1.8-24,24c3.7,13.8,9.2,36,12,50.7C31426,4676.7,31437,4676.7,31443.5,4642.5z"/>
		<path d="M31929.5,4594.6v-166l48.9,2.8l48,2.8l2.8,62.7l2.8,61.8h54.4h55.3v-65.5v-64.6l48.8,2.8l48,2.8l2.8,164.2l1.8,163.3
			h-50.7h-50.7v-60v-60h-55.3h-55.3v60v60h-50.7h-50.8v-167.1L31929.5,4594.6L31929.5,4594.6z"/>
		<path d="M32796.5,4594.6v-166l44.3,2.8l43.3,2.8l4.6,92.2l4.6,92.2l67.3-95l68.3-94.1h40.6h40.6v166v166h-46.1h-45.2l-2.8-83
			l-2.8-83l-60,83l-60,83h-47.9h-48.9L32796.5,4594.6L32796.5,4594.6z"/>
		<path d="M30988.8,4009.8v-161.4h95c119.9,0,165.1,19.4,198.3,83c27.7,53.5,24,140.2-7.4,184.5c-31.3,44.3-68.3,55.3-184.5,55.3
			h-101.5L30988.8,4009.8L30988.8,4009.8z M31165.9,4079c60-47,24.9-156.8-49.8-156.8h-25.8v87.6v87.6h26.7
			C31130.8,4097.5,31153.9,4089.2,31165.9,4079z"/>
		<path d="M31348.5,4009.8v-161.4h106h106v36.9v36.9h-55.3c-52.6,0-55.3,0.9-55.3,22.1c0,21.2,3.7,23,48.9,25.8l48,2.8l2.8,39.7
			l2.8,38.7h-50.7c-48.9,0-51.7,0.9-51.7,23c0,22.1,2.8,23,50.7,23h50.7v36.9v36.9h-101.5h-101.5L31348.5,4009.8L31348.5,4009.8z"/>
		<path d="M31606.7,4009.8v-161.4h106h106.1v36.9v36.9h-55.3h-55.3v124.5v124.5h-50.7h-50.7L31606.7,4009.8L31606.7,4009.8z"/>
		<path d="M31865,4009.8v-161.4h50.7h50.7v161.4v161.4h-50.7h-50.7V4009.8z"/>
		<path d="M32003.3,4164.8c0-3.7,23-75.6,49.8-159.5l49.8-152.2h58.1h57.2l49.8,147.5c26.7,81.2,48.9,152.2,48.9,158.6
			c0,8.3-15.7,12-48.9,12h-48.9l-27.7-112.5l-27.7-113.4L32136,4056l-27.7,110.7l-52.6,2.8
			C32027.3,4171.3,32003.3,4168.5,32003.3,4164.8z"/>
		<path d="M32363,4009.8v-161.4h106h106.1v36.9v36.9h-60c-58.1,0-60,0.9-60,23s2.8,23,50.7,23h50.7v41.5v41.5h-50.7
			c-48,0-50.7,0.9-50.7,23c0,22.1,2.8,23,55.3,23h55.3v36.9v36.9h-101.4H32363V4009.8z"/>
		<path d="M32621.2,4009.8v-161.4h50.7h50.7v55.3c0,42.4,2.8,55.3,12.9,55.3c7.4,0,26.7-24.9,43.3-55.3l29.5-55.3h53.5
			c30.4,0,54.4,2.8,54.4,5.5c0,13.8-83.9,132.8-94.1,132.8c-6.5,0.9-0.9,6.5,12.9,14.7c60.9,32.3,68.2,118.1,13.8,151.3
			c-24,15.7-47,18.5-128.2,18.5h-99.6v-161.4L32621.2,4009.8L32621.2,4009.8z M32763.3,4101.2c31.3-12,11.1-68.3-24-68.3
			c-12.9,0-16.6,7.4-16.6,36.9C32722.7,4107.6,32731,4113.1,32763.3,4101.2z"/>
		<path d="M32968,4065.2c43.3-92.2,49.8-113.4,49.8-161.4v-55.3h50.7h50.7v60c0,54.4,4.6,70.1,50.7,161.4l50.7,101.5h-54.4h-54.4
			l-16.6-59c-9.2-33.2-19.4-58.1-22.1-56.3c-3.7,1.8-13.8,28.6-23,60l-16.6,55.3h-58.1h-58.1L32968,4065.2z"/>
	</g>
</g>
<g id="layer1_00000139293804611022115440000002761097593060766637_" transform="translate(24.740585,-326.91711)">
	<path id="path5470" class="st15" d="M4156,368.1l15.5-15.5l-3.4-3.4c-27.1-27.1-71.3-27.1-98.4,0c-26,26-27.1,67.6-3.2,94.9
		l-15.5,15.5l3.4,3.4c27.1,27.1,71.3,27.1,98.4,0C4178.8,437.1,4179.9,395.4,4156,368.1 M4076.4,356c22.3-22.3,57.9-23.4,81.5-3.2
		l-8.8,8.8c-18.8-15.4-46.5-14.3-64,3.2s-18.6,45.3-3.2,64l-8.7,8.7C4053.1,413.9,4054.1,378.3,4076.4,356 M4146.1,456.3
		c-22.3,22.3-57.9,23.4-81.5,3.2l8.8-8.8c18.8,15.4,46.5,14.3,64-3.2s18.6-45.3,3.2-64l8.7-8.7
		C4169.4,398.5,4168.4,434.1,4146.1,456.3 M4309,384.9h14.1v10.8c7.2-14.4,31-17.6,36.3-0.1h0.2c4.9-9.6,16.9-14.3,27.1-11.2
		c9.4,2.9,12.2,12.5,12.2,21.4v37.8h-14.6v-35.1c0-6.1-1.6-12.2-9-11.7c-7.2,0.5-11.8,6.8-13.3,13.3c-0.6,2.3-0.7,4.8-0.7,7.6v25.8
		h-14.6v-35.1c0-6.5-1.9-12.6-9.7-11.7c-6.9,0.9-11.2,7.1-12.7,13.4c-0.6,2.2-0.7,4.8-0.7,7.5v25.8H4309V384.9L4309,384.9z
		 M4504.2,431.3c-3.8,0-6-1.6-6-8.1v-61.3l-14.5,14.5v49c0,16.8,10,18.9,18.1,18.9c2.4,0,4.6-0.3,4.6-0.3v-12.8
		C4506.4,431.2,4505.4,431.3,4504.2,431.3 M4466.5,395.2c-5.1-8.4-14.5-12.5-24.2-11.5c-6.2,0.7-12.8,3.9-15.9,9.5v-8.3H4413v86.6
		l14.6-14.7V437c4.9,7.2,14.6,9.2,22.7,7.5C4471.5,439.9,4476.7,411.7,4466.5,395.2 M4441.9,432.8c-9,0-14-8.2-14.6-16.4
		c-0.5-6.8,1.4-14.9,7.8-18.5c5.3-3,12.3-2.1,16.5,2.2C4460.9,409.6,4457.6,432.8,4441.9,432.8 M4280.2,384.9h14.6v58.8h-14.6V384.9
		z M4269.5,416.2c-2.3-10.3-12-15.2-20.8-18.9c-5.8-2.5-17.5-5.5-17.1-13.7c0.3-8.1,9.8-10.2,16.3-9.1c3.6,0.6,7.3,2.1,10.5,4.1
		l9.7-9.7c-8.8-8.4-24.1-10.6-35.2-6.6c-12,4.3-20.2,17.7-14.7,30.1c4.1,9.1,14.4,12.9,23,16.7c6.5,2.8,18,7.9,12.9,17.1
		c-3.7,6.6-13.2,5.8-19.2,3.7c-3.5-1.2-6.7-3-9.6-5.2l-9.8,9.8c8.5,8.6,22.6,12.3,34.3,10.1C4263,442,4272.6,429.9,4269.5,416.2"/>
</g>
</svg>
