<?xml version="1.0" encoding="utf-8"?>
<!-- Generator: Adobe Illustrator 26.0.1, SVG Export Plug-In . SVG Version: 6.00 Build 0)  -->
<svg version="1.1" id="Layer_1" xmlns="http://www.w3.org/2000/svg" xmlns:xlink="http://www.w3.org/1999/xlink" x="0px" y="0px"
	 viewBox="0 0 490.4 156.3" style="enable-background:new 0 0 490.4 156.3;" xml:space="preserve">
<style type="text/css">
	.st0{fill:#0458A0;}
	.st1{fill:#FAA71B;}
	.st2{fill:#F26122;}
	.st3{fill:#EA1D25;}
	.st4{fill:#F69E1E;}
	.st5{clip-path:url(#SVGID_00000020377164488786920250000005759723700939341737_);}
	.st6{fill:#6A6B6B;}
	.st7{fill:#67696D;}
	.st8{fill:#2A813F;}
	.st9{fill:#E86724;}
	.st10{fill:#26B9EC;}
	.st11{fill:#23356B;}
	.st12{fill-rule:evenodd;clip-rule:evenodd;fill:#010101;}
</style>
<g id="g4158">
	<polygon id="polygon9" class="st0" points="-1723.5,153.6 -1762.5,153.6 -1738.1,2.7 -1699.1,2.7 	"/>
	<path id="path11" class="st0" d="M-1582.1,6.4c-11.2-4.3-23-6.5-35-6.4c-38.5,0-65.6,20.5-65.8,49.9c-0.3,21.7,19.4,33.7,34.2,40.9
		c15.1,7.4,20.2,12.2,20.2,18.8c-0.1,10.1-12.2,14.8-23.4,14.8c-15.6,0-23.9-2.4-36.6-8l-5.1-2.5l-5.5,33.9c9.2,4.2,26,7.9,43.5,8
		c40.9,0,67.6-20.2,67.9-51.5c0.2-17.2-10.3-30.3-32.7-41.1c-13.6-6.9-22-11.6-22-18.6c0.2-6.4,7.1-13,22.5-13
		c10-0.3,19.9,1.7,29.1,5.8l3.5,1.6L-1582.1,6.4L-1582.1,6.4z"/>
	<path id="path13" class="st0" d="M-1530.2,100.1c3.2-8.7,15.6-42.2,15.6-42.2c-0.2,0.3,3.2-8.8,5.1-14.4l2.7,13
		c0,0,7.4,36.1,9,43.7L-1530.2,100.1z M-1482.1,2.7h-30.2c-9.3,0-16.4,2.7-20.4,12.5l-57.9,138.3h40.9l8.2-22.7h50.1
		c1.1,5.3,4.7,22.6,4.7,22.6h36.1C-1450.6,153.5-1482.1,2.7-1482.1,2.7z"/>
	<path id="path15" class="st0" d="M-1795,2.7l-38.2,102.9l-4.1-20.9c-7.1-24.1-29.3-50.2-54-63.2l35,131.9h41.2l61.3-150.7H-1795z"
		/>
	<path id="path17" class="st1" d="M-1868.7,2.7h-62.8l-0.6,3c49,12.6,81.4,42.7,94.7,79l-13.7-69.3C-1853.3,5.8-1860.2,3-1868.7,2.7
		z"/>
</g>
<g id="layer1">
	<g id="g13">
		<rect id="rect19" x="-1278.6" y="17.9" class="st2" width="66.8" height="120.1"/>
		<path class="st3" d="M-1274.4,77.9c0-23.4,10.7-45.5,29-60c-33.2-26-81.2-20.2-107.2,12.9c-26,33.2-20.2,81.2,12.9,107.2
			c13.5,10.6,30.1,16.3,47.2,16.3c17.1,0,33.7-5.8,47.1-16.4C-1263.7,123.5-1274.4,101.3-1274.4,77.9z"/>
		<path id="path22" class="st4" d="M-1121.6,77.9c0.1,42.1-34.1,76.3-76.2,76.4c-17.2,0-33.8-5.7-47.3-16.3
			c33.2-26.2,38.8-74.4,12.6-107.5c-3.7-4.7-7.9-8.9-12.6-12.6C-1212-8.2-1164-2.5-1138,30.6C-1127.4,44.1-1121.6,60.8-1121.6,77.9z
			"/>
	</g>
</g>
<g id="layer1-2">
	<g id="g22">
		<g>
			<defs>
				<rect id="SVGID_1_" x="-1076.2" y="-45.6" width="499.4" height="249.7"/>
			</defs>
			<clipPath id="SVGID_00000126300059303733479100000015748674394145606824_">
				<use xlink:href="#SVGID_1_"  style="overflow:visible;"/>
			</clipPath>
			<g style="clip-path:url(#SVGID_00000126300059303733479100000015748674394145606824_);">
				<g id="g24">
					<g id="g30">
						<path id="path32" class="st6" d="M-1036.9,133.5h3.2l-3,12.4c-0.4,1.8-0.4,3.2,0.3,4.2s1.7,1.4,3.4,1.4c1.5,0.1,2.9-0.4,4-1.4
							c1.2-1.1,2-2.6,2.3-4.2l3-12.4h3.3l-3,12.7c-0.5,2.4-1.7,4.6-3.5,6.2c-1.9,1.4-4.3,2.2-6.7,2.1c-2.7,0-4.6-0.7-5.7-2
							s-1.2-3.4-0.5-6.2L-1036.9,133.5z"/>
					</g>
					<g id="g34">
						<path id="path36" class="st6" d="M-1020.9,154l5.1-21.3l9.7,12.5c0.3,0.4,0.5,0.7,0.8,1.1s0.5,0.9,0.8,1.4l3.4-14.2h3
							l-5.1,21.3l-9.9-12.7c-0.3-0.4-0.5-0.7-0.7-1.1c-0.2-0.4-0.4-0.8-0.6-1.2l-3.4,14.2H-1020.9z"/>
					</g>
					<g id="g38">
						<path id="path40" class="st6" d="M-998.5,154l4.9-20.5h3.2l-4.9,20.5H-998.5z"/>
					</g>
					<g id="g42">
						<path id="path44" class="st6" d="M-990.6,154l4.9-20.5h11.1l-0.7,2.8h-7.9l-1.2,5.1h7.9l-0.7,2.9h-7.9l-2.3,9.6H-990.6z"/>
					</g>
					<g id="g46">
						<path id="path48" class="st6" d="M-975.9,154l4.9-20.5h3.2l-4.9,20.5H-975.9z"/>
					</g>
					<g id="g50">
						<path id="path52" class="st6" d="M-968,154l4.9-20.5h11.1l-0.7,2.8h-7.9l-1.2,5.1h7.9l-0.7,2.9h-7.9l-1.6,6.6h7.9l-0.7,3
							L-968,154z"/>
					</g>
					<g id="g54">
						<path id="path56" class="st6" d="M-949.1,151h2.7c1.2,0,2.3-0.1,3.5-0.3c0.8-0.2,1.5-0.5,2.2-1c0.9-0.7,1.7-1.5,2.3-2.5
							c0.6-1.1,1.1-2.2,1.4-3.4c0.3-1.1,0.4-2.3,0.3-3.4c-0.1-0.9-0.5-1.8-1.1-2.5c-0.5-0.5-1.1-0.8-1.8-1c-1.2-0.3-2.4-0.4-3.6-0.3
							h-2.3L-949.1,151z M-953.1,154l4.9-20.5h4.4c2-0.1,4,0.1,5.9,0.4c1,0.3,1.9,0.8,2.7,1.5c1,0.9,1.6,2.2,1.8,3.5
							c0.2,1.6,0.1,3.3-0.3,4.9c-0.4,1.7-1.1,3.3-2,4.8c-0.9,1.4-2.1,2.6-3.5,3.5c-1,0.7-2.1,1.2-3.3,1.5c-1.7,0.3-3.5,0.5-5.3,0.4
							H-953.1L-953.1,154z"/>
					</g>
					<g id="g58">
						<path id="path60" class="st6" d="M-917.9,142.1h0.8c1.3,0.1,2.6-0.1,3.7-0.6c0.8-0.5,1.3-1.3,1.4-2.1c0.3-1.1,0.1-1.9-0.4-2.3
							s-1.7-0.7-3.4-0.7h-0.8L-917.9,142.1z M-918.8,144.8l-2.2,9.2h-3l4.9-20.5h4.9c1.1,0,2.1,0,3.2,0.3c0.6,0.1,1.1,0.4,1.6,0.8
							c0.5,0.5,0.9,1.2,1,1.9c0.2,0.9,0.1,1.8-0.1,2.7c-0.2,1-0.6,1.9-1.2,2.7c-0.5,0.8-1.2,1.4-1.9,1.9c-0.6,0.4-1.3,0.6-2,0.8
							c-1.1,0.2-2.2,0.3-3.3,0.2L-918.8,144.8L-918.8,144.8z"/>
					</g>
					<g id="g62">
						<path id="path64" class="st6" d="M-904.6,146h5.6l-0.9-4.7c0-0.3-0.1-0.6-0.1-1s-0.1-0.8-0.1-1.3c-0.2,0.4-0.4,0.9-0.7,1.3
							s-0.4,0.7-0.6,1.1L-904.6,146z M-897.6,154l-1-5.3h-7.9l-3.6,5.3h-3.3l14.8-21.3l4.6,21.3H-897.6z"/>
					</g>
					<g id="g66">
						<path id="path68" class="st6" d="M-889.5,154l2.2-9.4l-4.1-11.1h3.4l2.5,7c0,0.2,0.1,0.4,0.2,0.7s0.2,0.6,0.2,0.9
							c0.2-0.3,0.4-0.6,0.6-0.9s0.4-0.6,0.6-0.8l5.9-6.9h3.2l-9.5,11.1l-2.3,9.4L-889.5,154z"/>
					</g>
					<g id="g70">
						<path id="path72" class="st6" d="M-858.5,143.9c0-0.2,0.1-0.6,0.1-1.3s0.1-1.1,0.2-1.5c-0.2,0.5-0.4,0.9-0.7,1.4
							c-0.3,0.5-0.6,1-0.9,1.4l-7.8,10.9l-2.6-11.1c-0.1-0.4-0.2-0.9-0.3-1.3c-0.1-0.4-0.1-0.9-0.1-1.3c-0.1,0.5-0.3,0.9-0.4,1.4
							c-0.2,0.5-0.4,1-0.6,1.5l-4.6,10.1h-3l9.8-21.3l2.8,12.9c0,0.2,0.1,0.5,0.2,1c0.1,0.5,0.2,1.1,0.3,1.8
							c0.3-0.6,0.8-1.3,1.4-2.2c0.2-0.2,0.3-0.4,0.4-0.6l8.8-12.9l-0.3,21.3h-3L-858.5,143.9z"/>
					</g>
					<g id="g74">
						<path id="path76" class="st6" d="M-853.1,154l4.9-20.5h11.1l-0.7,2.8h-7.9l-1.2,5.1h7.9l-0.7,2.9h-7.9l-1.6,6.6h7.9l-0.7,3
							L-853.1,154z"/>
					</g>
					<g id="g78">
						<path id="path80" class="st6" d="M-838.3,154l5.1-21.3l9.7,12.5c0.3,0.4,0.5,0.7,0.8,1.1s0.5,0.9,0.8,1.4l3.4-14.2h3
							l-5.1,21.3l-9.9-12.7c-0.3-0.3-0.5-0.7-0.7-1.1c-0.2-0.4-0.5-0.8-0.6-1.2l-3.4,14.2H-838.3z"/>
					</g>
					<g id="g82">
						<path id="path84" class="st6" d="M-805.2,136.4l-4.2,17.6h-3.2l4.2-17.6h-5.3l0.7-2.8h13.8l-0.7,2.8H-805.2z"/>
					</g>
					<g id="g86">
						<path id="path88" class="st6" d="M-801.8,149.9l2.9-1.2c0,0.8,0.3,1.5,0.8,2.1c0.7,0.5,1.5,0.8,2.3,0.7c1.8,0.1,3.5-1.2,3.9-3
							c0.3-1.2-0.4-2.3-2.2-3.2l-0.6-0.3c-1.5-0.7-2.7-1.7-3.7-3c-0.5-1-0.6-2.2-0.3-3.3c0.4-1.6,1.3-3.1,2.6-4.1
							c1.4-1,3-1.6,4.7-1.6c1.2-0.1,2.4,0.2,3.5,0.9c0.8,0.6,1.4,1.5,1.5,2.5l-2.9,1.4c-0.2-0.6-0.5-1.1-1-1.4
							c-0.5-0.3-1-0.5-1.5-0.4c-0.8,0-1.6,0.2-2.3,0.7c-0.6,0.5-1,1.1-1.2,1.9c-0.3,1.2,0.6,2.4,2.6,3.4l0.4,0.2
							c1.4,0.6,2.5,1.5,3.4,2.7c0.5,1,0.7,2.2,0.3,3.3c-0.4,1.8-1.4,3.5-2.9,4.6c-1.5,1.2-3.3,1.8-5.2,1.7c-1.4,0.1-2.8-0.3-3.9-1.2
							C-801.5,152.5-802,151.2-801.8,149.9"/>
					</g>
					<g id="g90">
						<path id="path92" class="st6" d="M-777.9,154l4.9-20.5h3.2l-4.9,20.5H-777.9z"/>
					</g>
					<g id="g94">
						<path id="path96" class="st6" d="M-770,154l5.1-21.3l9.7,12.5c0.3,0.4,0.5,0.7,0.8,1.1s0.5,0.9,0.8,1.4l3.4-14.2h3l-5.1,21.3
							l-9.9-12.7c-0.3-0.4-0.5-0.7-0.7-1.1c-0.2-0.4-0.4-0.8-0.6-1.2L-767,154H-770z"/>
					</g>
					<g id="g98">
						<path id="path100" class="st6" d="M-736.9,136.4l-4.2,17.6h-3.3l4.2-17.6h-5.2l0.7-2.8h13.8l-0.7,2.8H-736.9z"/>
					</g>
					<g id="g102">
						<path id="path104" class="st6" d="M-733.4,154l4.9-20.5h11.1l-0.7,2.8h-7.9l-1.2,5.1h7.9l-0.7,2.9h-7.9l-1.6,6.6h7.9l-0.7,3
							L-733.4,154z"/>
					</g>
					<g id="g106">
						<path id="path108" class="st6" d="M-712.4,142.3h0.6c1.2,0.1,2.4-0.1,3.6-0.6c0.7-0.5,1.2-1.3,1.4-2.2
							c0.3-1.1,0.2-1.9-0.3-2.4s-1.6-0.7-3.2-0.7h-0.6L-712.4,142.3z M-713.3,144.9l-2.2,9.2h-3l4.9-20.5h4.5c1,0,2,0.1,3,0.3
							c0.6,0.1,1.2,0.4,1.7,0.9c0.5,0.5,0.9,1.2,1,1.9c0.1,0.9,0.1,1.7-0.1,2.6c-0.3,1.5-1,2.8-2.1,3.9c-1.1,1-2.4,1.5-3.8,1.7
							l4.6,9.3h-3.7l-4.4-9.2L-713.3,144.9z"/>
					</g>
					<g id="g110">
						<path id="path112" class="st6" d="M-702.9,154l4.9-20.5h11.1l-0.7,2.8h-7.9l-1.2,5.1h7.9l-0.7,2.9h-7.9l-2.3,9.6H-702.9z"/>
					</g>
					<g id="g114">
						<path id="path116" class="st6" d="M-683.1,146h5.6l-0.9-4.7c0-0.3-0.1-0.6-0.1-1s-0.1-0.8-0.1-1.3c-0.2,0.4-0.4,0.9-0.7,1.3
							s-0.4,0.7-0.6,1.1L-683.1,146z M-676.1,154l-1-5.3h-7.9l-3.6,5.3h-3.4l14.8-21.3l4.6,21.3H-676.1z"/>
					</g>
					<g id="g118">
						<path id="path120" class="st6" d="M-651.5,138.5c-0.7-0.8-1.5-1.4-2.5-1.8c-1-0.4-2-0.6-3.1-0.6c-2.1,0-4.2,0.8-5.8,2.2
							c-1.7,1.4-2.9,3.4-3.4,5.6c-0.6,1.8-0.3,3.8,0.7,5.5c1,1.5,2.7,2.3,4.5,2.2c1.2,0,2.4-0.2,3.5-0.6c1.3-0.5,2.5-1.1,3.5-1.9
							l-0.9,3.8c-2,1.3-4.3,1.9-6.6,1.9c-1.4,0-2.7-0.2-4-0.8c-1.1-0.5-2.1-1.3-2.9-2.3c-0.8-1-1.2-2.2-1.4-3.5
							c-0.2-1.4-0.1-2.9,0.2-4.2c0.4-1.5,1-2.9,1.8-4.2c0.8-1.3,1.9-2.5,3.1-3.5c1.2-1,2.5-1.7,4-2.3c1.4-0.5,2.9-0.8,4.3-0.8
							c1.1,0,2.2,0.2,3.2,0.5c1,0.4,1.9,0.9,2.7,1.6L-651.5,138.5z"/>
					</g>
					<g id="g122">
						<path id="path124" class="st6" d="M-651.2,154l4.9-20.5h11.1l-0.7,2.8h-7.9l-1.2,5.1h7.9l-0.7,2.9h-7.9l-1.6,6.6h7.9l-0.7,3
							L-651.2,154z"/>
					</g>
					<g id="g126">
						<path id="path128" class="st7" d="M-710.4,115.7h-22.3l31-112h22.3L-710.4,115.7z"/>
					</g>
					<g id="g130">
						<path id="path132" class="st7" d="M-721.9,7.3c-1.5-2.1-3.9-3.2-7.2-3.2h-122.6l-6.1,21.9h111.5l-6.5,23.4h-89.2l0,0h-22.3
							l-18.5,66.8h22.3l12.4-44.8h100.3c3.2,0,6.3-1.2,8.8-3.2c2.7-2,4.6-4.8,5.4-8l12.4-44.8C-720,12.1-720.4,9.4-721.9,7.3"/>
					</g>
					<g id="g134">
						<path id="path136" class="st7" d="M-895.7,108.7c-1.2,4.4-5.3,7.5-9.9,7.5h-115c-3.1,0-5.5-1.1-7-3.2c-1.5-2.1-1.9-4.8-1-7.9
							l28.1-101h22.3l-25.1,90.2h89.3l25.1-90.2h22.3L-895.7,108.7z"/>
					</g>
					<g id="g138">
						<path id="path140" class="st8" d="M-640.8,3.9l28.2,56.1l-59.3,56.1L-640.8,3.9z"/>
					</g>
					<g id="g142">
						<path id="path144" class="st9" d="M-660.6,3.9l28.2,56.2l-59.4,56.1L-660.6,3.9z"/>
					</g>
				</g>
			</g>
		</g>
	</g>
</g>
<path class="st10" d="M488.8,45.8C484.2,32.7,471.8,24,458,24h-0.3c-8.9,0-17.4,3.6-23.5,10c-6.1-6.4-14.7-10-23.5-10h-0.3
	c-7.8,0-15.4,2.8-21.3,7.9v-2.5c-0.2-2.5-2.3-4.5-4.8-4.5h-21.8c-2.7,0-4.8,2.1-4.8,4.8c0,0,0,0,0,0v118.6c0,2.7,2.2,4.8,4.8,4.8
	c0,0,0,0,0,0h21.8c2.4,0,4.4-1.8,4.8-4.2V63.9c0-0.3,0-0.6,0-0.9c0.3-4,3.5-7.1,7.5-7.3h4c1.7,0.1,3.3,0.7,4.6,1.8
	c1.9,1.5,3,3.9,3,6.4l0.1,84.7c0,2.7,2.2,4.8,4.8,4.9l0,0h21.8c2.6,0,4.6-2,4.8-4.6V63.8c-0.1-2.7,1.3-5.3,3.6-6.8
	c1.2-0.8,2.6-1.2,4-1.3h4c4.3,0.2,7.7,3.8,7.6,8.2l0.1,84.6c0,2.7,2.2,4.8,4.8,4.8l0,0h22c2.7,0,4.8-2.2,4.8-4.8v-91
	C490.5,51.2,489.8,48.6,488.8,45.8L488.8,45.8z M340.9,25.2h-12.5V4.9c0-2.4-2-4.4-4.4-4.4l0,0c-0.3,0-0.6,0-0.8,0.1
	c-13.9,3.8-11.1,23-36.4,24.6h-2.4c-0.4,0-0.7,0-1.1,0.1l0,0c-2.2,0.5-3.8,2.4-3.8,4.7v21.9c0,2.7,2.2,4.8,4.8,4.8h13.2v92.6
	c0,2.6,2.1,4.8,4.8,4.8h21.6c2.6,0,4.8-2.1,4.8-4.8V56.7h12.2c2.7,0,4.8-2.2,4.8-4.8V30.1C345.7,27.4,343.6,25.2,340.9,25.2"/>
<path class="st11" d="M262.3,25.2h-21.8c-2.7,0-4.8,2.2-4.8,4.8c0,0,0,0,0,0v45.2c-0.1,2.8-2.3,5-5.1,5h-9.1c-2.8,0-5.1-2.3-5.1-5.1
	c0,0,0,0,0,0L216.2,30c0-2.7-2.2-4.8-4.8-4.8h-21.8c-2.7,0-4.8,2.1-4.8,4.8c0,0,0,0,0,0v49.5c0,18.8,13.4,32.2,32.2,32.2
	c0,0,14.1,0,14.6,0.1c2.8,0.3,4.8,2.8,4.5,5.6c-0.2,2.4-2.1,4.3-4.5,4.5l-0.4,0.1l-31.9,0.1c-2.7,0-4.8,2.2-4.8,4.8c0,0,0,0,0,0
	v21.8c0,2.7,2.1,4.8,4.8,4.8c0,0,0,0,0,0h35.7c18.8,0,32.2-13.4,32.2-32.2V30.1C267.1,27.4,265,25.2,262.3,25.2
	C262.3,25.2,262.3,25.2,262.3,25.2L262.3,25.2z M50.9,65.2v13.5c0,2.8-2.3,5.1-5.1,5.1H31.9v-27h13.9c2.8,0,5.1,2.3,5.1,5.1l0,0
	V65.2z M52.8,25.2H5.1c-2.6,0-4.7,2.1-4.7,4.7v21.4c0,0,0,0.1,0,0.1s0,0.2,0,0.3v96.9c-0.1,2.5,1.9,4.7,4.4,4.8H27
	c2.7,0,4.8-2.2,4.8-4.8c0,0,0,0,0,0l0.1-33.2h20.9c17.5,0,29.7-12.1,29.7-29.7V55C82.5,37.4,70.3,25.2,52.8,25.2L52.8,25.2z
	 M141.5,116.6v3.4c0,0.3,0,0.5-0.1,0.8c-0.1,0.2-0.1,0.5-0.2,0.7c-0.8,2-2.7,3.3-4.9,3.3h-9.1c-2.7,0.1-5-2.1-5.1-4.8v-4.1
	c0,0,0-0.1,0-0.2v-14.4c0.1-2.7,2.4-4.9,5.1-4.8h9.1c2.7-0.1,5,2.1,5.1,4.8L141.5,116.6z M138,25.4h-30.3c-2.6-0.1-4.8,1.9-4.8,4.5
	v8.5c0,0,0,0.1,0,0.2s0,0.1,0,0.2v11.6c0.1,2.7,2.4,4.9,5.1,4.8h28.9c2.4,0.3,4.2,2.2,4.4,4.6v2.8c-0.2,2.3-1.9,4.2-4.2,4.5h-14.3
	c-19,0-32.6,12.6-32.6,30.4v25.4c0,17.6,11.6,30.2,30.5,30.2h39.6c7.1,0,12.9-5.4,12.9-12V58.1C173.2,38,162.8,25.4,138,25.4
	L138,25.4z"/>
<path class="st12" d="M-528.1,54.5l76.2-54l76.6,54H-528.1z M-383.1,82.7c13,1.6,22.9,12.6,22.9,25.8v22c0,14.3-11.6,25.9-25.9,25.9
	c-14.3,0-25.9-11.6-25.9-25.9v-22c0-13.1,9.8-24.2,22.9-25.7V68.3c0-1.7,1.4-3.1,3.1-3.1c1.7,0,3.1,1.4,3.1,3.1l0,0L-383.1,82.7
	L-383.1,82.7z M-372.1,94.4c-7.7-7.7-20.3-7.7-28,0c-3.7,3.7-5.8,8.7-5.8,14v22c0,10.9,8.9,19.8,19.8,19.8
	c10.9,0,19.8-8.9,19.8-19.8c0,0,0,0,0,0v-22C-366.3,103.2-368.4,98.1-372.1,94.4L-372.1,94.4z M-386.4,102.8L-386.4,102.8
	c2.7,0,4.9,2.2,4.9,4.9v5.1c-0.1,2.7-2.2,4.9-4.9,4.9l0,0c-2.7,0-5-2.2-5-4.9v-5.1C-391.4,104.9-389.1,102.7-386.4,102.8
	C-386.4,102.7-386.4,102.7-386.4,102.8L-386.4,102.8z M-531.7,133.3h8.9v-8.2h4.7v-3.9h5V74.1h-10.2V62.8h125.2
	c-0.8,1.7-1.2,3.6-1.2,5.5v6.4c-0.8,0.3-1.6,0.7-2.4,1.1c-2.7,1.3-5.2,3-7.5,4.9v-6.7h-15.8v47.1h2.9v9.2l0,0
	c0,3.9,0.6,7.8,1.9,11.5h-111.3L-531.7,133.3z M-489.4,125.1h5.8v-3.9h5V74.1h-15.8v47.1h5L-489.4,125.1z M-454.8,125.1h5.8v-3.9h5
	V74.1h-15.8v47.1h5L-454.8,125.1z M-477.5,40.9l25.8-19.8l25.9,19.8H-477.5z"/>
<path d="M-336.8,71.5V23.1h7.8l16.2,32.3V23.1h7.5v48.3h-8l-16-31.5v31.5H-336.8z"/>
<path d="M-296.9,71.5V23.1h29.4v8.2H-289V42h19.9v8.1H-289v13.1h22.2v8.2H-296.9z"/>
<path d="M-251.1,71.5V31.3h-11.8v-8.2h31.5v8.2h-11.7v40.2H-251.1z"/>
<path d="M-336.9,90.7h15.9c4.3,0,7.4,0.4,9.1,1.2c1.9,0.9,3.4,2.4,4.5,4.2c2.3,4,2.4,9,0.3,13.1c-0.9,1.7-2.3,3.2-4,4.2
	c2.3,0.8,4.2,2.3,5.5,4.3c1.4,2.2,2.1,4.8,2,7.4c0.1,3.2-0.8,6.3-2.5,8.9c-1.4,2.2-3.5,3.8-6,4.5c-1.6,0.4-5.3,0.6-11.2,0.6h-13.5
	L-336.9,90.7z M-328.9,98.7v11.2h5.3c3.2,0,5.1,0,5.9-0.2c1.2-0.2,2.4-0.8,3.2-1.7c0.8-1.1,1.2-2.4,1.2-3.8c0.1-1.2-0.3-2.4-0.9-3.5
	c-0.5-0.8-1.3-1.4-2.3-1.7c-2.5-0.3-5.1-0.4-7.7-0.3L-328.9,98.7z M-328.9,117.9v12.9h7.4c2.1,0.1,4.2-0.1,6.3-0.5
	c1-0.4,1.8-1.1,2.3-2c0.7-1.2,1-2.5,0.9-3.8c0.1-1.4-0.3-2.7-1-3.9c-0.6-1-1.6-1.7-2.7-2.1c-2.2-0.5-4.5-0.7-6.8-0.6L-328.9,117.9z"
	/>
<path d="M-261.2,139h-8.7l-3.5-10.9h-15.9l-3.3,10.9h-8.5l15.4-48.3h8.5L-261.2,139z M-275.9,119.9l-5.4-18l-5.4,18H-275.9z"/>
<path d="M-256.9,139V90.7h7.8l16.2,32.2V90.7h7.5V139h-8.1l-16-31.5V139H-256.9z"/>
<path d="M-217,139V90.7h8v21.5l16.2-21.5h10.8l-14.9,18.8l15.7,29.5h-10.4l-10.9-22.7l-6.5,8.1V139L-217,139z"/>
<path d="M-177.4,139V90.7h8V139H-177.4z"/>
<path d="M-161.6,139V90.7h7.8l16.2,32.2V90.7h7.4V139h-8l-16-31.5V139H-161.6z"/>
<path d="M-103.3,121.3v-8.2H-86v19.2c-2.1,2.3-4.6,4.1-7.4,5.3c-3,1.4-6.3,2.2-9.6,2.2c-3.7,0.1-7.3-1-10.3-2.9
	c-3.2-2.1-5.6-5.1-7.1-8.6c-1.8-4.3-2.7-8.9-2.6-13.5c-0.1-4.7,0.8-9.4,2.7-13.7c1.5-3.4,3.8-6.3,6.9-8.5c3-1.9,6.6-2.9,10.1-2.8
	c4.7,0,8.5,1.2,11.3,3.6s4.7,5.9,5.5,10.6l-7.9,1.8c-0.4-2.2-1.6-4.2-3.3-5.7c-1.6-1.3-3.6-2-5.7-2c-3.2-0.1-6.3,1.4-8.3,4
	c-2.1,2.7-3.2,6.7-3.2,12.1c0,5.8,1.1,10.2,3.4,13.3c1.8,2.6,4.8,4,8,3.9c1.7,0,3.3-0.4,4.9-1.1c1.7-0.7,3.2-1.7,4.5-3v-6.1
	L-103.3,121.3z"/>
</svg>
