<?xml version="1.0" encoding="utf-8"?>
<!-- Generator: Adobe Illustrator 26.0.1, SVG Export Plug-In . SVG Version: 6.00 Build 0)  -->
<svg version="1.1" id="Layer_1" xmlns="http://www.w3.org/2000/svg" xmlns:xlink="http://www.w3.org/1999/xlink" x="0px" y="0px"
	 viewBox="0 0 3530.8 157.1" style="enable-background:new 0 0 3530.8 157.1;" xml:space="preserve">
<style type="text/css">
	.st0{fill:#0458A0;}
	.st1{fill:#FAA71B;}
	.st2{fill:#F26122;}
	.st3{fill:#EA1D25;}
	.st4{fill:#F69E1E;}
	.st5{clip-path:url(#SVGID_00000143614389478369991650000004971152868340558504_);}
	.st6{fill:#6A6B6B;}
	.st7{fill:#67696D;}
	.st8{fill:#2A813F;}
	.st9{fill:#E86724;}
	.st10{fill-rule:evenodd;clip-rule:evenodd;fill:#010101;}
	.st11{fill:#606469;}
	.st12{fill:url(#Google_Red_00000134234308171415021300000006681529509914989957_);}
	.st13{fill:#FBBD13;}
	.st14{fill:#2EA94E;}
	.st15{fill:url(#Google_Blue_00000067200053604388152310000010887265665753953711_);}
	.st16{clip-path:url(#SVGID_00000077325455258763100860000009762362923359928193_);}
	.st17{fill-rule:evenodd;clip-rule:evenodd;fill:#F79D35;}
	.st18{fill-rule:evenodd;clip-rule:evenodd;fill:#333F48;}
</style>
<g id="g4158">
	<polygon id="polygon9" class="st0" points="208.6,153.6 169.6,153.6 194,2.7 233,2.7 	"/>
	<path id="path11" class="st0" d="M350,6.4c-11.2-4.3-23-6.5-35-6.4c-38.5,0-65.6,20.5-65.8,49.9c-0.3,21.7,19.4,33.7,34.2,40.9
		c15.1,7.4,20.2,12.2,20.2,18.8c-0.1,10.1-12.2,14.8-23.4,14.8c-15.6,0-23.9-2.4-36.6-8l-5.1-2.5l-5.5,33.9c9.1,4.2,26,7.9,43.5,8
		c40.9,0,67.6-20.2,67.9-51.5c0.2-17.2-10.3-30.3-32.7-41.1c-13.6-6.9-22-11.6-22-18.6c0.2-6.4,7.1-13,22.5-13
		c10-0.3,19.9,1.7,29,5.8l3.5,1.6L350,6.4L350,6.4z"/>
	<path id="path13" class="st0" d="M401.9,100.1c3.2-8.7,15.6-42.2,15.6-42.2c-0.2,0.3,3.2-8.8,5.1-14.4l2.7,13c0,0,7.4,36.1,9,43.7
		L401.9,100.1z M450,2.7h-30.2c-9.3,0-16.4,2.7-20.4,12.5l-57.9,138.3h40.9l8.2-22.7h50.1c1.1,5.3,4.7,22.6,4.7,22.6h36.1L450,2.7z"
		/>
	<path id="path15" class="st0" d="M137.1,2.7L98.9,105.6l-4.1-20.9c-7.1-24.1-29.3-50.2-54-63.2l35,131.9H117L178.3,2.7H137.1z"/>
	<path id="path17" class="st1" d="M63.4,2.7H0.6L0,5.7c49,12.6,81.4,42.7,94.7,79L81,15.4C78.8,5.8,71.9,3,63.4,2.7z"/>
</g>
<g id="layer1">
	<g id="g13">
		<rect id="rect19" x="653.5" y="17.9" class="st2" width="66.8" height="120.1"/>
		<path class="st3" d="M657.7,77.9c0-23.4,10.7-45.5,29-60C653.6-8.2,605.5-2.5,579.4,30.6S559,111.8,592.1,138
			c27.7,21.9,66.9,21.9,94.6,0C668.4,123.5,657.7,101.3,657.7,77.9z"/>
		<path id="path22" class="st4" d="M810.5,77.9c0.1,42.1-34,76.4-76.2,76.4c-17.1,0-33.8-5.7-47.3-16.3
			c33.2-26.2,38.8-74.4,12.6-107.5c-3.7-4.7-7.9-8.9-12.6-12.6c33.1-26.1,81.1-20.3,107.1,12.8C804.7,44.2,810.5,60.8,810.5,77.9z"
			/>
	</g>
</g>
<g id="layer1-2">
	<g id="g22">
		<g>
			<defs>
				<rect id="SVGID_1_" x="855.9" y="-45.6" width="499.4" height="249.7"/>
			</defs>
			<clipPath id="SVGID_00000020359386256921650910000003381389055201667729_">
				<use xlink:href="#SVGID_1_"  style="overflow:visible;"/>
			</clipPath>
			<g style="clip-path:url(#SVGID_00000020359386256921650910000003381389055201667729_);">
				<g id="g24">
					<g id="g30">
						<path id="path32" class="st6" d="M895.2,133.5h3.2l-3,12.4c-0.4,1.8-0.4,3.2,0.3,4.2s1.7,1.4,3.4,1.4c1.5,0,2.9-0.4,4-1.4
							c1.2-1.1,1.9-2.6,2.2-4.1l3-12.4h3.3l-3,12.7c-0.5,2.4-1.7,4.6-3.5,6.2c-1.9,1.4-4.3,2.2-6.7,2.1c-2.7,0-4.6-0.7-5.7-2
							s-1.2-3.4-0.5-6.2L895.2,133.5z"/>
					</g>
					<g id="g34">
						<path id="path36" class="st6" d="M911.2,154l5.1-21.3l9.7,12.5c0.3,0.4,0.5,0.7,0.8,1.1s0.5,0.9,0.8,1.4l3.4-14.2h3l-5.1,21.3
							l-9.9-12.7c-0.3-0.4-0.5-0.7-0.7-1.1s-0.4-0.8-0.6-1.2l-3.4,14.2H911.2z"/>
					</g>
					<g id="g38">
						<path id="path40" class="st6" d="M933.6,154l4.9-20.5h3.2l-4.9,20.5H933.6z"/>
					</g>
					<g id="g42">
						<path id="path44" class="st6" d="M941.5,154l4.9-20.5h11.1l-0.7,2.8H949l-1.2,5.1h7.9l-0.7,2.9h-7.9l-2.4,9.6H941.5z"/>
					</g>
					<g id="g46">
						<path id="path48" class="st6" d="M956.2,154l4.9-20.5h3.2l-4.9,20.5H956.2z"/>
					</g>
					<g id="g50">
						<path id="path52" class="st6" d="M964.1,154l4.9-20.5h11.1l-0.7,2.8h-7.9l-1.2,5.1h7.9l-0.7,2.9h-7.9l-1.6,6.6h7.9l-0.7,3
							H964.1z"/>
					</g>
					<g id="g54">
						<path id="path56" class="st6" d="M983,151h2.7c1.2,0,2.3-0.1,3.5-0.3c0.8-0.2,1.5-0.5,2.2-1c0.9-0.7,1.7-1.5,2.3-2.5
							c0.6-1.1,1.1-2.2,1.3-3.4c0.3-1.1,0.4-2.3,0.3-3.4c-0.1-0.9-0.5-1.8-1.1-2.5c-0.5-0.5-1.1-0.8-1.8-1c-1.2-0.3-2.4-0.4-3.6-0.3
							h-2.3L983,151z M979,154l4.9-20.5h4.4c2-0.1,4,0.1,5.9,0.4c1,0.3,1.9,0.8,2.7,1.5c1,0.9,1.6,2.2,1.8,3.5
							c0.2,1.6,0.1,3.3-0.3,4.9c-0.4,1.7-1.1,3.3-2,4.8c-0.9,1.4-2.1,2.6-3.5,3.5c-1,0.7-2.1,1.2-3.3,1.5c-1.7,0.3-3.5,0.5-5.3,0.4
							H979z"/>
					</g>
					<g id="g58">
						<path id="path60" class="st6" d="M1014.2,142.1h0.8c1.3,0.1,2.6-0.1,3.7-0.6c0.8-0.5,1.3-1.3,1.4-2.1c0.3-1.1,0.1-1.9-0.4-2.3
							c-1-0.6-2.2-0.8-3.4-0.7h-0.8L1014.2,142.1z M1013.3,144.8l-2.2,9.2h-3l4.9-20.5h4.9c1.1,0,2.1,0,3.2,0.3
							c0.6,0.1,1.1,0.4,1.6,0.8c0.5,0.5,0.9,1.2,1,1.9c0.2,0.9,0.1,1.8-0.1,2.7c-0.2,1-0.6,1.9-1.2,2.7c-0.5,0.8-1.2,1.4-1.9,1.9
							c-0.6,0.4-1.3,0.6-2,0.8c-1.1,0.2-2.2,0.3-3.3,0.2L1013.3,144.8L1013.3,144.8z"/>
					</g>
					<g id="g62">
						<path id="path64" class="st6" d="M1027.5,146h5.6l-0.9-4.7c0-0.3-0.1-0.6-0.1-1s-0.1-0.8-0.1-1.3c-0.2,0.4-0.4,0.9-0.7,1.3
							s-0.4,0.7-0.6,1.1L1027.5,146z M1034.5,154l-1-5.3h-7.9l-3.6,5.3h-3.3l14.8-21.3l4.5,21.3H1034.5z"/>
					</g>
					<g id="g66">
						<path id="path68" class="st6" d="M1042.6,154l2.2-9.4l-4.1-11.1h3.4l2.5,7c0,0.2,0.1,0.5,0.2,0.7c0.1,0.3,0.2,0.6,0.2,0.9
							c0.2-0.3,0.4-0.6,0.6-0.9s0.4-0.6,0.6-0.8l5.9-6.9h3.2l-9.5,11.1l-2.3,9.4L1042.6,154z"/>
					</g>
					<g id="g70">
						<path id="path72" class="st6" d="M1073.6,143.9c0-0.2,0.1-0.6,0.1-1.3s0.1-1.1,0.2-1.5c-0.2,0.5-0.4,0.9-0.7,1.4
							c-0.3,0.5-0.6,1-0.9,1.4l-7.8,10.9l-2.6-11.1c-0.1-0.4-0.2-0.9-0.3-1.3c-0.1-0.4-0.1-0.9-0.1-1.3c-0.1,0.5-0.3,0.9-0.4,1.4
							c-0.2,0.5-0.4,1-0.6,1.5L1056,154h-3l9.8-21.3l2.8,12.9c0,0.2,0.1,0.5,0.2,1s0.2,1.1,0.3,1.8c0.3-0.6,0.8-1.3,1.4-2.2
							c0.2-0.2,0.3-0.4,0.4-0.6l8.8-12.9l-0.3,21.3h-3L1073.6,143.9z"/>
					</g>
					<g id="g74">
						<path id="path76" class="st6" d="M1079,154l4.9-20.5h11.1l-0.7,2.8h-7.9l-1.2,5.1h7.9l-0.7,2.9h-7.9l-1.6,6.6h7.9l-0.7,3
							L1079,154z"/>
					</g>
					<g id="g78">
						<path id="path80" class="st6" d="M1093.8,154l5.1-21.3l9.7,12.5c0.3,0.4,0.5,0.7,0.8,1.1s0.5,0.9,0.8,1.4l3.4-14.2h3
							l-5.1,21.3l-9.9-12.7c-0.5-0.7-1-1.5-1.4-2.3l-3.4,14.2H1093.8z"/>
					</g>
					<g id="g82">
						<path id="path84" class="st6" d="M1126.9,136.4l-4.2,17.6h-3.2l4.2-17.6h-5.3l0.7-2.8h13.8l-0.7,2.8L1126.9,136.4z"/>
					</g>
					<g id="g86">
						<path id="path88" class="st6" d="M1130.3,149.9l2.9-1.2c0,0.8,0.3,1.5,0.8,2.1c0.7,0.5,1.5,0.8,2.3,0.7c1.8,0.1,3.5-1.2,3.9-3
							c0.3-1.2-0.4-2.3-2.2-3.2l-0.6-0.3c-1.4-0.7-2.7-1.7-3.7-3c-0.5-1-0.6-2.2-0.3-3.3c0.4-1.6,1.3-3.1,2.6-4.1
							c1.4-1,3-1.6,4.7-1.6c1.2-0.1,2.4,0.2,3.5,0.9c0.8,0.6,1.4,1.5,1.5,2.5l-2.9,1.4c-0.2-0.6-0.5-1.1-1-1.4
							c-0.5-0.3-1-0.5-1.5-0.4c-0.8,0-1.6,0.2-2.3,0.7c-0.6,0.5-1,1.1-1.2,1.9c-0.3,1.2,0.6,2.4,2.6,3.4l0.4,0.2
							c1.4,0.6,2.5,1.5,3.4,2.7c0.5,1,0.7,2.2,0.3,3.3c-0.4,1.8-1.4,3.5-2.9,4.6c-1.5,1.2-3.3,1.8-5.2,1.7c-1.4,0.1-2.8-0.3-3.9-1.2
							C1130.6,152.5,1130.1,151.2,1130.3,149.9"/>
					</g>
					<g id="g90">
						<path id="path92" class="st6" d="M1154.2,154l4.9-20.5h3.2l-4.9,20.5H1154.2z"/>
					</g>
					<g id="g94">
						<path id="path96" class="st6" d="M1162.1,154l5.1-21.3l9.7,12.5c0.3,0.4,0.5,0.7,0.8,1.1s0.5,0.9,0.8,1.4l3.4-14.2h3
							l-5.1,21.3l-9.9-12.7c-0.3-0.4-0.5-0.7-0.7-1.1s-0.4-0.8-0.6-1.2l-3.4,14.2H1162.1z"/>
					</g>
					<g id="g98">
						<path id="path100" class="st6" d="M1195.2,136.4L1191,154h-3.3l4.2-17.6h-5.2l0.7-2.8h13.8l-0.7,2.8L1195.2,136.4z"/>
					</g>
					<g id="g102">
						<path id="path104" class="st6" d="M1198.7,154l4.9-20.5h11.1l-0.7,2.8h-7.9l-1.2,5.1h7.9l-0.7,2.9h-7.9l-1.6,6.6h7.9l-0.7,3
							L1198.7,154z"/>
					</g>
					<g id="g106">
						<path id="path108" class="st6" d="M1219.7,142.3h0.6c1.2,0.1,2.4-0.1,3.6-0.6c0.7-0.5,1.2-1.3,1.4-2.2
							c0.3-1.1,0.2-1.9-0.3-2.4s-1.6-0.7-3.2-0.7h-0.6L1219.7,142.3z M1218.8,144.8l-2.2,9.2h-3l4.9-20.5h4.5c1,0,2,0.1,3,0.3
							c0.6,0.1,1.2,0.4,1.7,0.9c0.5,0.5,0.9,1.2,1,1.9c0.1,0.9,0.1,1.7-0.1,2.6c-0.3,1.5-1,2.8-2.1,3.9c-1.1,1-2.4,1.5-3.8,1.7
							l4.6,9.3h-3.7l-4.4-9.2L1218.8,144.8z"/>
					</g>
					<g id="g110">
						<path id="path112" class="st6" d="M1229.2,154l4.9-20.5h11.1l-0.7,2.8h-7.9l-1.2,5.1h7.9l-0.7,2.9h-7.9l-2.3,9.6H1229.2z"/>
					</g>
					<g id="g114">
						<path id="path116" class="st6" d="M1249,146h5.6l-0.9-4.7c0-0.3-0.1-0.6-0.1-1s-0.1-0.8-0.1-1.3c-0.2,0.4-0.4,0.9-0.7,1.3
							s-0.4,0.7-0.6,1.1L1249,146z M1256,154l-1-5.3h-7.9l-3.6,5.3h-3.4l14.8-21.3l4.6,21.3H1256z"/>
					</g>
					<g id="g118">
						<path id="path120" class="st6" d="M1280.6,138.5c-0.7-0.8-1.5-1.4-2.5-1.8c-1-0.4-2-0.6-3.1-0.6c-2.1,0-4.2,0.8-5.8,2.2
							c-1.7,1.4-2.9,3.4-3.4,5.6c-0.6,1.8-0.3,3.8,0.7,5.5c1,1.5,2.7,2.3,4.5,2.2c1.2,0,2.4-0.2,3.5-0.6c1.3-0.5,2.4-1.1,3.5-1.9
							l-0.9,3.8c-2,1.3-4.3,1.9-6.6,1.9c-1.4,0-2.7-0.2-4-0.8c-1.1-0.5-2.1-1.3-2.9-2.3c-0.8-1-1.2-2.2-1.4-3.5
							c-0.2-1.4-0.1-2.9,0.2-4.2c0.4-1.5,1-2.9,1.8-4.2c0.8-1.3,1.9-2.5,3.1-3.5c1.2-1,2.5-1.7,4-2.3c1.4-0.5,2.9-0.8,4.3-0.8
							c1.1,0,2.2,0.2,3.2,0.5c1,0.4,1.9,0.9,2.7,1.6L1280.6,138.5z"/>
					</g>
					<g id="g122">
						<path id="path124" class="st6" d="M1280.9,154l4.9-20.5h11.2l-0.7,2.8h-7.9l-1.2,5.1h7.8l-0.7,2.9h-7.9l-1.6,6.6h7.9l-0.7,3
							L1280.9,154z"/>
					</g>
					<g id="g126">
						<path id="path128" class="st7" d="M1221.7,115.7h-22.3l31-112h22.3L1221.7,115.7z"/>
					</g>
					<g id="g130">
						<path id="path132" class="st7" d="M1210.2,7.3c-1.5-2.1-3.9-3.2-7.2-3.2h-122.6l-6.1,21.9h111.5l-6.5,23.4h-111.5l-18.5,66.8
							h22.3l12.4-44.8h100.3c3.2,0,6.3-1.2,8.8-3.2c2.7-2,4.6-4.8,5.4-8l12.4-44.8C1212,12.1,1211.7,9.4,1210.2,7.3"/>
					</g>
					<g id="g134">
						<path id="path136" class="st7" d="M1036.4,108.7c-1.2,4.4-5.3,7.5-9.9,7.5h-115c-3.1,0-5.5-1.1-7-3.2c-1.5-2.1-1.9-4.8-1-7.9
							l28.1-101h22.3l-25.1,90.2h89.3l25.1-90.2h22.3L1036.4,108.7z"/>
					</g>
					<g id="g138">
						<path id="path140" class="st8" d="M1291.3,3.9l28.2,56.1l-59.3,56.1L1291.3,3.9z"/>
					</g>
					<g id="g142">
						<path id="path144" class="st9" d="M1271.5,3.9l28.2,56.2l-59.4,56.1L1271.5,3.9z"/>
					</g>
				</g>
			</g>
		</g>
	</g>
</g>
<path class="st10" d="M1404,54.5l76.2-54l76.6,54H1404z M1549,82.7c13,1.6,22.9,12.6,22.9,25.8v22c0,14.3-11.6,25.9-25.9,25.9
	c-14.3,0-25.9-11.6-25.9-25.9v-22c0-13.1,9.8-24.2,22.9-25.7V68.3c0-1.7,1.4-3.1,3.1-3.1c1.7,0,3.1,1.4,3.1,3.1l0,0L1549,82.7
	L1549,82.7z M1560,94.4c-7.7-7.7-20.3-7.7-28,0c-3.7,3.7-5.8,8.7-5.8,14v22c0,10.9,8.9,19.8,19.8,19.8c10.9,0,19.8-8.9,19.8-19.8
	v-22C1565.8,103.2,1563.7,98.1,1560,94.4L1560,94.4z M1545.8,102.8L1545.8,102.8c2.7,0,4.9,2.2,4.9,4.9v5.1
	c-0.1,2.7-2.2,4.9-4.9,4.9l0,0c-2.7,0-5-2.2-5-4.9v-5.1C1540.8,104.9,1543,102.7,1545.8,102.8
	C1545.7,102.7,1545.8,102.7,1545.8,102.8L1545.8,102.8L1545.8,102.8z M1400.4,133.3h8.9v-8.2h4.7v-3.9h5V74.1h-10.2V62.8h125.2
	c-0.8,1.7-1.2,3.6-1.2,5.5v6.4c-0.8,0.3-1.6,0.7-2.4,1.1c-2.7,1.3-5.2,3-7.5,4.9v-6.7H1507v47.1h2.9v9.2l0,0c0,3.9,0.6,7.8,1.9,11.5
	h-111.4L1400.4,133.3z M1442.7,125.1h5.8v-3.9h5V74.1h-15.8v47.1h5L1442.7,125.1z M1477.3,125.1h5.8v-3.9h5V74.1h-15.8v47.1h5
	L1477.3,125.1z M1454.6,40.9l25.8-19.8l25.9,19.8H1454.6z"/>
<path d="M1595.3,71.5V23.1h7.7l16.2,32.3V23.1h7.5v48.3h-8l-16-31.5v31.5H1595.3z"/>
<path d="M1635.2,71.5V23.1h29.4v8.2h-21.4V42h19.9v8.1h-19.9v13.2h22.2v8.2H1635.2z"/>
<path d="M1681,71.5V31.3h-11.8v-8.2h31.5v8.2H1689v40.2H1681z"/>
<path d="M1595.2,90.7h15.8c4.3,0,7.4,0.4,9.1,1.2c1.9,0.9,3.4,2.4,4.5,4.2c2.3,4,2.4,9,0.3,13.1c-0.9,1.7-2.3,3.2-4,4.2
	c2.3,0.8,4.2,2.3,5.5,4.3c1.4,2.2,2.1,4.8,2,7.4c0.1,3.2-0.8,6.3-2.5,8.9c-1.4,2.2-3.5,3.8-6,4.5c-1.6,0.4-5.3,0.6-11.2,0.6h-13.4
	L1595.2,90.7z M1603.2,98.7v11.2h5.3c2,0.1,3.9,0,5.9-0.2c1.2-0.2,2.4-0.8,3.2-1.7c0.8-1.1,1.2-2.4,1.2-3.8c0.1-1.2-0.3-2.4-0.9-3.5
	c-0.5-0.8-1.3-1.4-2.3-1.7c-2.5-0.3-5.1-0.4-7.7-0.3L1603.2,98.7z M1603.2,117.9v12.9h7.4c2.1,0.1,4.2-0.1,6.3-0.5
	c1-0.4,1.8-1.1,2.3-2c0.7-1.2,1-2.5,0.9-3.8c0.1-1.4-0.3-2.7-1-3.9c-0.6-1-1.6-1.7-2.7-2.1c-2.2-0.5-4.5-0.7-6.8-0.6L1603.2,117.9z"
	/>
<path d="M1670.9,139h-8.7l-3.5-10.9h-15.9l-3.3,10.9h-8.5l15.4-48.3h8.5L1670.9,139z M1656.2,119.9l-5.4-18l-5.4,18H1656.2z"/>
<path d="M1675.2,139V90.7h7.8l16.2,32.2V90.7h7.5V139h-8.1l-16-31.5V139H1675.2z"/>
<path d="M1715.1,139V90.7h8v21.5l16.2-21.5h10.8l-14.9,18.8l15.7,29.5h-10.4l-10.9-22.7l-6.5,8.1V139H1715.1z"/>
<path d="M1754.7,139V90.7h8V139H1754.7z"/>
<path d="M1770.5,139V90.7h7.8l16.2,32.2V90.7h7.4V139h-8l-16-31.5V139H1770.5z"/>
<path d="M1828.8,121.3v-8.2h17.2v19.2c-2.1,2.3-4.6,4.1-7.4,5.3c-3,1.4-6.3,2.2-9.6,2.2c-3.7,0.1-7.3-1-10.3-2.9
	c-3.2-2.1-5.6-5.1-7.1-8.6c-1.8-4.3-2.7-8.9-2.6-13.5c-0.1-4.7,0.8-9.4,2.7-13.7c1.5-3.4,3.8-6.3,6.9-8.5c3-1.9,6.6-2.9,10.1-2.8
	c4.7,0,8.5,1.2,11.3,3.6s4.7,5.9,5.5,10.6l-7.9,1.8c-0.4-2.2-1.6-4.2-3.3-5.7c-1.6-1.3-3.6-2-5.7-2c-3.2-0.1-6.3,1.4-8.3,4
	c-2.1,2.7-3.2,6.7-3.2,12.1c0,5.8,1.1,10.2,3.4,13.3c1.8,2.6,4.8,4,8,3.9c1.7,0,3.3-0.4,4.9-1.1c1.7-0.7,3.2-1.7,4.5-3v-6.1
	L1828.8,121.3z"/>
<g id="Product_name">
	<path class="st11" d="M2508,84.8v28.9h-9.2V42.3h24.4c5.9-0.1,11.6,2.1,15.8,6.2c8.3,7.7,8.8,20.7,1.1,29.1
		c-0.4,0.4-0.7,0.8-1.1,1.1c-4.2,4.1-9.9,6.3-15.8,6.1H2508z M2508,51.1v24.9h15.4c3.4,0.1,6.7-1.2,9.1-3.7c2.4-2.3,3.7-5.5,3.7-8.8
		c0-3.3-1.3-6.4-3.7-8.7c-2.4-2.5-5.7-3.9-9.1-3.8L2508,51.1z"/>
	<path class="st11" d="M2569.6,63.3c6.8,0,12.1,1.8,16.1,5.5c3.9,3.6,5.9,8.6,5.9,14.9v30.2h-8.8V107h-0.4
		c-3.8,5.6-8.9,8.4-15.1,8.4c-4.9,0.2-9.8-1.5-13.5-4.8c-3.5-3-5.5-7.4-5.5-12c-0.1-4.7,2-9.2,5.8-12c3.8-3,9-4.5,15.3-4.5
		c5.5,0,9.9,1,13.5,3V83c0-3.1-1.4-6.1-3.8-8.1c-2.4-2.2-5.6-3.4-8.9-3.3c-4.9-0.1-9.5,2.3-12.2,6.5l-8.1-5
		C2554.3,66.5,2560.9,63.3,2569.6,63.3z M2557.8,98.8c0,2.4,1.1,4.6,3,6c2,1.6,4.5,2.4,7.1,2.4c3.9,0,7.6-1.5,10.3-4.3
		c2.9-2.5,4.6-6.2,4.5-10.1c-2.9-2.3-6.9-3.4-12-3.4c-3.3-0.1-6.6,0.8-9.3,2.7C2559.1,93.6,2557.8,96.1,2557.8,98.8z"/>
	<path class="st11" d="M2641.5,64.9l-30.6,70.4h-9.5l11.4-24.6l-20.2-45.8h10l14.6,35.1h0.2l14.2-35.1L2641.5,64.9z"/>
</g>
<g id="Google_logo">
	<path class="st11" d="M2188.8,82.5V71.4h37c0.4,2.2,0.6,4.5,0.6,6.8c0,8.3-2.3,18.5-9.5,25.8c-7.1,7.4-16.2,11.4-28.2,11.4
		c-22.3,0-41-18.2-41-40.4s18.7-40.5,41-40.5c10.3-0.2,20.3,3.9,27.6,11.2l-7.8,7.8c-5.4-5.1-12.5-8-19.9-7.9c-16,0-29,13-29,29
		c0,0.1,0,0.3,0,0.4c-0.2,16,12.6,29.2,28.6,29.4c0.1,0,0.2,0,0.4,0c10.6,0,16.6-4.2,20.4-8.1c3.1-3.2,5.2-7.6,6-13.8L2188.8,82.5z"
		/>
	<path class="st11" d="M2282.7,89.3c0,14.4-11.7,26.1-26.1,26.1c-14.4,0-26.1-11.7-26.1-26.1c0-15.1,11.8-26,26.1-26
		S2282.7,74.2,2282.7,89.3z M2271.3,89.3c0-9.4-6.8-15.8-14.7-15.8s-14.7,6.4-14.7,15.8s6.8,15.8,14.7,15.8S2271.3,98.6,2271.3,89.3
		z"/>
	<path class="st11" d="M2339.7,89.3c-0.3,14.4-12.2,25.9-26.6,25.6c-14-0.3-25.3-11.6-25.6-25.6c0-15.1,11.8-26,26.1-26
		S2339.7,74.2,2339.7,89.3z M2328.3,89.3c0-9.4-6.8-15.8-14.7-15.8s-14.7,6.4-14.7,15.8s6.8,15.8,14.7,15.8S2328.3,98.6,2328.3,89.3
		z"/>
	<path class="st11" d="M2394.4,64.8v46.7c0,19.2-11.4,27.1-24.8,27.1c-10.1,0.1-19.3-6-23.1-15.4l9.9-4.1c1.8,4.2,6.1,9.3,13.1,9.3
		c8.6,0,13.9-5.3,13.9-15.3v-3.7h-0.4c-2.6,3.2-7.5,5.9-13.7,5.9c-13,0-24.9-11.4-24.9-25.9s12-26.1,24.9-26.1
		c6.2,0,11.2,2.8,13.7,5.8h0.4v-4.2L2394.4,64.8L2394.4,64.8z M2384.4,89.4c0-9.2-6.1-15.9-13.9-15.9s-14.5,6.7-14.5,15.9
		c0,9,6.6,15.7,14.5,15.7C2378.2,105.1,2384.3,98.5,2384.4,89.4L2384.4,89.4z"/>
	<path class="st11" d="M2413.8,37.5v76.3h-11.5V37.5H2413.8z"/>
	<path class="st11" d="M2457.9,97.9l8.9,5.9c-4.8,7.3-13,11.6-21.7,11.6c-14.8,0-25.8-11.5-25.8-26c0-15.5,11.2-26,24.6-26
		c13.5,0,20.1,10.8,22.3,16.6l1.2,3l-34.8,14.4c2.7,5.2,6.8,7.9,12.6,7.9S2455,102.2,2457.9,97.9z M2430.6,88.5l23.3-9.7
		c-1.3-3.3-5.1-5.5-9.6-5.5c-7.9,0.4-14,7.1-13.6,15C2430.6,88.4,2430.6,88.4,2430.6,88.5L2430.6,88.5z"/>
</g>
<g id="Product_icon">
	
		<linearGradient id="Google_Red_00000057123659630112242130000017535929300045270926_" gradientUnits="userSpaceOnUse" x1="2044.0417" y1="521.4246" x2="2110.9978" y2="545.8068" gradientTransform="matrix(1 0 0 1 -2 -458.66)">
		<stop  offset="0.2" style="stop-color:#D93327"/>
		<stop  offset="0.6" style="stop-color:#EA4535"/>
	</linearGradient>
	<path id="Google_Red" style="fill:url(#Google_Red_00000057123659630112242130000017535929300045270926_);" d="M2030.7,94.4
		l45.1-78.2l24.6,14.2c15.9,9.1,21.3,29.4,12.2,45.3c0,0,0,0,0,0l0,0l-25.4,44c-5.7,9.9-18.4,13.3-28.3,7.6l-22.8-13.1
		C2029.1,110.2,2026.8,101.4,2030.7,94.4z"/>
	<path id="Google_Yellow" class="st13" d="M2026,40.2l-56.1,97.2l24.6,14.2c15.8,9.2,36.1,3.8,45.3-12.1c0,0,0,0,0,0l0,0l36.4-63.1
		c5.7-9.9,2.4-22.6-7.5-28.3c0,0,0,0,0,0h-0.1l-22.9-13.2C2038.8,30.9,2030,33.3,2026,40.2z"/>
	<path id="Google_Green" class="st14" d="M2075.9,16.3l-17.4-10.1c-19.8-11.4-45.2-4.6-56.7,15.2l-32.3,55.9
		c-5.7,9.9-2.4,22.5,7.5,28.3c0,0,0,0,0,0l0.1,0.1l17.4,10c9.9,5.7,22.6,2.4,28.3-7.5c0,0,0,0,0,0l0,0l38.5-66.8l0,0
		c8-13.8,25.7-18.6,39.5-10.6l0.1,0.1"/>
	
		<linearGradient id="Google_Blue_00000034771723974327718840000009152674182392363184_" gradientUnits="userSpaceOnUse" x1="1942.3313" y1="529.3472" x2="2016.9498" y2="556.504" gradientTransform="matrix(1 0 0 1 -2 -458.66)">
		<stop  offset="0.2" style="stop-color:#557EBF"/>
		<stop  offset="0.8" style="stop-color:#3F71B8"/>
	</linearGradient>
	<path id="Google_Blue" style="fill:url(#Google_Blue_00000034771723974327718840000009152674182392363184_);" d="M2006.9,37.8
		l-19.2-11c-8.5-4.9-19.5-2-24.4,6.5L1940.2,73c-11.4,19.6-4.7,44.6,14.8,56c0,0,0,0,0.1,0l0.1,0.1l14.6,8.4l17.8,10.2l7.7,4.5
		c-13.7-9.3-17.9-27.5-9.6-41.8l5.9-10.3l21.8-37.7C2018.3,53.8,2015.5,42.8,2006.9,37.8C2006.9,37.8,2006.9,37.8,2006.9,37.8
		L2006.9,37.8z"/>
</g>
<g>
	<defs>
		<rect id="SVGID_00000074418559919288432290000001742892939518782878_" x="2721.7" y="2.2" width="807.2" height="154.9"/>
	</defs>
	<clipPath id="SVGID_00000091708971588046352670000008278231101693602696_">
		<use xlink:href="#SVGID_00000074418559919288432290000001742892939518782878_"  style="overflow:visible;"/>
	</clipPath>
	<g style="clip-path:url(#SVGID_00000091708971588046352670000008278231101693602696_);">
		<path class="st17" d="M3040.2,123.4c-29.8,22-73.1,33.7-110.3,33.7c-52.2,0-99.2-19.3-134.8-51.4c-2.8-2.5-0.3-6,3-4
			c38.4,22.3,85.9,35.8,134.9,35.8c35.3-0.2,70.3-7.3,102.9-21C3040.9,114.3,3045.1,119.7,3040.2,123.4z"/>
		<path class="st17" d="M3052.6,109.2c-3.8-4.9-25.2-2.3-34.8-1.2c-2.9,0.4-3.4-2.2-0.7-4c17.1-12,45-8.5,48.3-4.5
			s-0.9,32.1-16.9,45.5c-2.5,2.1-4.8,1-3.7-1.8C3048.4,134.2,3056.4,114.1,3052.6,109.2z"/>
		<path class="st18" d="M3018.4,19.3V7.7c0-1.6,1.2-2.9,2.8-2.9c0,0,0,0,0,0h52.4c1.6-0.1,2.9,1.2,3,2.8c0,0,0,0,0,0v10.1
			c0,1.7-1.4,3.9-3.9,7.3l-27.1,38.6c10-0.2,20.7,1.3,29.8,6.4c1.7,0.9,2.7,2.6,2.8,4.6v12.4c0,1.7-1.9,3.7-3.9,2.7
			c-17.3-8.9-37.9-8.9-55.2,0.1c-1.8,1-3.7-1-3.7-2.7V75.2c-0.2-2.8,0.5-5.6,1.9-8l31.3-45h-27.3c-1.6,0.1-2.9-1.2-3-2.8
			C3018.5,19.4,3018.5,19.3,3018.4,19.3z"/>
		<path class="st18" d="M2827.9,92.1H2812c-1.5-0.1-2.7-1.2-2.8-2.7V7.8c0-1.7,1.4-3,3.1-2.9c0,0,0,0,0,0h14.8c1.6,0,2.9,1.2,3,2.8
			v10.6h0.3c3.9-10.3,11.1-15.1,20.9-15.1s16.2,4.8,20.6,15.1c3.9-10.3,12.6-15.1,22-15.1c6.7,0,13.9,2.8,18.4,8.9
			c5,6.9,4,16.8,4,25.6v51.5c0,1.7-1.4,3-3.1,2.9h-15.9c-1.6-0.1-2.8-1.4-2.9-2.9V45.9c0-3.4,0.3-12-0.4-15.3c-1.2-5.5-4.8-7-9.3-7
			c-4.2,0.1-8,2.8-9.5,6.7c-1.6,4.1-1.5,11-1.5,15.6v43.2c0,1.7-1.4,3-3.1,2.9c0,0,0,0,0,0h-15.9c-1.6-0.1-2.8-1.4-2.9-2.9V45.9
			c0-9.1,1.5-22.5-9.8-22.5s-11,13-11,22.5v43.2C2831,90.8,2829.6,92.1,2827.9,92.1C2827.9,92.1,2827.9,92.1,2827.9,92.1z"/>
		<path class="st18" d="M3121.8,19.8c-11.7,0-12.5,16-12.5,25.9s-0.1,31.3,12.3,31.3s12.9-17.2,12.9-27.6c0-6.9-0.3-15.1-2.4-21.6
			C3130.4,22,3126.8,19.8,3121.8,19.8z M3121.6,3.2c23.6,0,36.3,20.3,36.3,46c0,24.9-14.1,44.6-36.3,44.6
			c-23.1,0-35.8-20.3-35.8-45.5C3085.9,22.9,3098.6,3.2,3121.6,3.2z"/>
		<path class="st18" d="M3188.5,92.1h-15.8c-1.6-0.1-2.8-1.4-2.9-2.9V7.5c0.2-1.5,1.5-2.7,3.1-2.7h14.7c1.3,0,2.5,1,2.8,2.3v12.5
			h0.3c4.4-11.2,10.7-16.5,21.6-16.5c7.1,0,14.1,2.6,18.5,9.6c4.2,6.5,4.2,17.5,4.2,25.4v51.3c-0.2,1.5-1.5,2.6-3,2.6h-15.9
			c-1.4-0.1-2.6-1.1-2.8-2.6V45.2c0-8.9,1-22-9.9-22c-3.9,0-7.4,2.6-9.2,6.5c-2.2,5-2.5,10-2.5,15.5v43.9c0,1.7-1.4,3-3.1,2.9
			H3188.5z"/>
		<path class="st18" d="M2992.8,91.9c-1.1,0.9-2.5,1-3.8,0.4c-5.3-4.4-6.2-6.4-9.1-10.6c-8.7,8.9-14.9,11.6-26.2,11.6
			c-13.4,0-23.8-8.3-23.8-24.8c0-12.9,7-21.7,17-26c8.6-3.8,20.7-4.5,29.9-5.5v-2c0-3.8,0.3-8.3-1.9-11.5c-1.9-2.9-5.6-4.1-8.9-4.1
			c-6.1,0-11.4,3.1-12.8,9.5c-0.3,1.4-1.3,2.9-2.8,2.9L2935,30c-1.5-0.2-2.6-1.6-2.4-3.1v-0.2c3.5-18.4,19.9-24.2,34.9-24.3h1.2
			c7.7,0.1,17.4,2.2,23.4,7.9c7.7,7.2,7,16.9,7,27.4v24.8c0,7.4,3.1,10.7,6,14.7c1,1.4,1.2,3.2,0,4.2
			C3001.8,84.1,2996.1,89.1,2992.8,91.9L2992.8,91.9z M2976.8,53.1c0,6.2,0.1,11.3-3,16.9c-2.5,4.5-6.5,7.2-11,7.2
			c-6.1,0-9.7-4.6-9.7-11.5c0-13.5,12.1-16,23.6-16L2976.8,53.1z"/>
		<path class="st18" d="M2784.5,91.9c-1.1,0.9-2.6,1-3.8,0.4c-5.3-4.4-6.2-6.4-9.1-10.6c-8.7,8.9-14.9,11.6-26.2,11.6
			c-13.4,0-23.8-8.3-23.8-24.8c0-12.9,7-21.7,16.9-26c8.6-3.8,20.7-4.5,29.9-5.5v-2c0-3.8,0.3-8.3-1.9-11.5
			c-1.9-2.9-5.7-4.1-8.9-4.1c-6.1,0-11.5,3.1-12.8,9.5c-0.3,1.4-1.3,2.9-2.8,2.9l-15.4-1.7c-1.5-0.2-2.6-1.6-2.4-3.1v-0.2
			c3.5-18.4,20-24.2,34.9-24.3h1.2c7.7,0.1,17.4,2.2,23.4,7.9c7.7,7.2,7,16.9,7,27.4v24.8c0,7.4,3.1,10.7,6,14.7
			c1,1.4,1.3,3.2,0,4.2C2793.5,84.1,2787.8,89.1,2784.5,91.9L2784.5,91.9z M2768.5,53.1c0,6.2,0.1,11.3-3,16.9
			c-2.5,4.5-6.5,7.2-11,7.2c-6.1,0-9.7-4.6-9.7-11.5c0-13.5,12.1-16,23.6-16L2768.5,53.1z"/>
		<path class="st18" d="M3452.3,121.3v-6c0-1.7,0.8-2.9,2.6-2.8c3.3,0.5,8,0.9,11.4,0.3c4.4-0.9,7.5-4,9.3-8.2
			c2.6-6,4.3-10.8,5.4-13.9l-33-81.9c-0.6-1.4-0.7-4,2-4h11.6c1.7,0,3.2,1.1,3.6,2.8l24,66.5L3512,7.6c0.4-1.7,1.9-2.8,3.6-2.8h10.9
			c2.8,0,2.6,2.6,2,4l-32.8,84.4c-4.3,11.2-9.9,29.2-22.6,32.3c-6.4,1.7-14.4,1.1-19.2-0.9C3452.9,123.9,3452.2,122.6,3452.3,121.3z
			"/>
		<path class="st18" d="M3436.9,87.1c0,1.5-1.2,2.8-2.8,2.8h-8.1c-1.6,0-3-1.2-3.2-2.8l-0.8-5.6c-4,3.3-8.5,6-13.3,7.9
			c-9.6,3.7-20.6,4.3-30-1.4c-6.8-4.2-10.4-12.3-10.4-20.7c0-6.5,2-12.9,6.4-17.6c5.9-6.4,14.5-9.5,24.8-9.5
			c6.3,0,15.2,0.7,21.7,2.9V31.9c0-11.4-4.8-16.3-17.4-16.3c-9.6,0-17,1.5-27.3,4.6c-1.4,0.1-2.5-1-2.6-2.4c0-0.1,0-0.2,0-0.3v-6.4
			c0.1-1.6,1.2-3,2.7-3.4c7.3-3.2,17.7-5.2,28.7-5.6c14.4,0,31.5,3.2,31.5,25.4L3436.9,87.1z M3421.2,70.8V53.9
			c-5.5-1.5-14.5-2.1-18-2.1c-5.5,0-11.6,1.3-14.8,4.7c-2.3,2.6-3.5,6-3.4,9.5c0,4.5,1.6,9,5.2,11.2c4.2,2.9,10.7,2.5,16.9,0.8
			C3413,76.4,3418.5,73.4,3421.2,70.8z"/>
		<path class="st18" d="M3316.7,15.9c18.1,0,23,14.2,23,30.5c0.1,11-1.9,20.8-7.6,26.4c-4.3,4.2-9,5.3-16.1,5.3
			c-6.4,0-14.7-3.3-21-8V23.6C3301.2,18.8,3308.9,16.1,3316.7,15.9z M3292.2,124.2h-10.9c-1.5,0-2.8-1.2-2.8-2.8V7.7
			c0-1.5,1.3-2.7,2.8-2.7h8.4c1.6,0,3,1.2,3.2,2.8l0.9,6c7.8-6.9,17.9-11.4,27.5-11.4c26.9,0,35.7,22.1,35.7,45.2
			c0,24.6-13.5,44.4-36.4,44.4c-9.4,0-18.5-3.5-25.6-9.8v39.3C3295,123,3293.8,124.2,3292.2,124.2
			C3292.2,124.2,3292.2,124.2,3292.2,124.2L3292.2,124.2z"/>
	</g>
</g>
</svg>
