<?xml version="1.0" encoding="utf-8"?>
<!-- Generator: Adobe Illustrator 26.0.1, SVG Export Plug-In . SVG Version: 6.00 Build 0)  -->
<svg version="1.1" id="Layer_1" xmlns="http://www.w3.org/2000/svg" xmlns:xlink="http://www.w3.org/1999/xlink" x="0px" y="0px"
	 viewBox="0 0 497.1 157.3" style="enable-background:new 0 0 497.1 157.3;" xml:space="preserve">
<style type="text/css">
	.st0{fill:#00D1C1;}
</style>
<path id="path5470" class="st0" d="M109.2,40.2l15.7-15.7l-3.4-3.4C94-6.4,49.3-6.4,21.8,21.1c-26.3,26.3-27.4,68.5-3.3,96.1
	L2.8,132.9l3.4,3.4c27.5,27.5,72.2,27.5,99.7,0C132.2,110,133.3,67.8,109.2,40.2 M28.6,27.9c22.6-22.6,58.6-23.7,82.5-3.3l-8.9,8.9
	c-19-15.6-47.1-14.5-64.8,3.2s-18.8,45.8-3.2,64.8l-8.8,8.8C4.9,86.5,6,50.5,28.6,27.9 M99.1,129.5c-22.6,22.6-58.6,23.7-82.5,3.3
	l8.9-8.9c19,15.6,47.1,14.5,64.8-3.2s18.8-45.8,3.2-64.8l8.8-8.8C122.8,70.9,121.7,106.9,99.1,129.5 M271.2,51.9h16v13.2
	c8.2-17.5,35.4-21.4,41.5-0.1h0.2c5.6-11.7,19.3-17.4,31-13.5c10.7,3.5,13.9,15.2,13.9,26v45.8h-16.7V80.8c0-7.4-1.8-14.8-10.3-14.2
	c-8.2,0.6-13.4,8.3-15.2,16.2c-0.7,2.8-0.8,5.9-0.8,9.2v31.4h-16.7V80.8c0-7.9-2.1-15.3-11.1-14.1c-7.9,1.1-12.8,8.6-14.6,16.3
	c-0.7,2.6-0.8,5.9-0.8,9.1v31.4h-16.7L271.2,51.9L271.2,51.9z M494.5,108c-4.3,0-6.9-1.9-6.9-9.8V23.9L471,41.5v59.4
	c0,20.5,11.5,22.9,20.7,22.9c2.8,0,5.3-0.4,5.3-0.4v-15.6C497,107.9,495.9,108,494.5,108 M451.4,64.2c-5.9-10.2-16.6-15.2-27.7-13.9
	c-7.1,0.8-14.6,4.8-18.2,11.6V51.9h-15.2v105L407,139V115c5.6,8.6,16.7,11.1,26,9C457,118.6,463,84.3,451.4,64.2 M423.2,110
	c-10.3,0-16-10.1-16.7-19.9c-0.6-8.3,1.6-18.1,8.9-22.4c6-3.6,14-2.6,19,2.6C445,81.7,441.1,110,423.2,110 M238.4,51.9h16.7v71.3
	h-16.7V51.9z M226.2,89.7c-2.6-12.4-13.7-18.3-23.8-22.9c-6.7-3-20-6.7-19.6-16.6c0.3-9.8,11.2-12.3,18.6-11c4.2,0.7,8.2,2.5,12,5
	l11.2-11.8c-10-10.2-27.5-12.8-40.2-8c-13.7,5.3-23.1,21.4-16.8,36.5c4.6,11,16.5,15.7,26.2,20.2c7.4,3.5,20.7,9.6,14.7,20.7
	c-4.2,8-15,7.1-21.9,4.5c-4-1.4-7.7-3.6-11.1-6.3l-11.2,11.8c9.7,10.4,25.8,14.8,39.2,12.2C218.8,121.1,229.7,106.4,226.2,89.7"/>
</svg>
